<svg xmlns="http://www.w3.org/2000/svg" viewBox="0 0 800 800"><defs><style>.cls-1{fill:#ebcfad;}.cls-2{fill:#fff;}.cls-3{fill:#9baaa7;}.cls-4{fill:#c98b72;}</style></defs><title>graphic</title><g id="Layer_1" data-name="Layer 1"><path class="cls-1" d="M346,135h-6v-5.12h17V135h-5.93v19.27H346Z"/><path class="cls-1" d="M361.33,129.83h5.12v9.63h7.26v-9.63h5.12v24.39H373.7v-9.63h-7.26v9.63h-5.12Z"/><path class="cls-1" d="M384.66,129.83h15.66V135H389.78v4.52h9.33v5.12h-9.33v4.52h10.54v5.12H384.66Z"/><path class="cls-1" d="M417.77,154.22,413,145.64h-2.5v8.58H405.4V129.83h9.24a7.95,7.95,0,0,1,3.61,15l5.45,9.39Zm-7.26-13.7h4.12a2.78,2.78,0,0,0,0-5.57h-4.12Z"/><path class="cls-1" d="M428,129.83h15.66V135H433.09v4.52h9.33v5.12h-9.33v4.52h10.54v5.12H428Z"/><path class="cls-1" d="M448,140l1-10.15h6L451.54,140Z"/><path class="cls-1" d="M458.49,148.26l4.73-2.14a3.41,3.41,0,0,0,3.4,3.31,2.61,2.61,0,0,0,2.8-2.68c0-4-9.57-2.77-9.57-10.48a6.58,6.58,0,0,1,6.93-6.74,7.05,7.05,0,0,1,6.83,4.67l-4.46,2a2.43,2.43,0,0,0-2.29-1.78,1.74,1.74,0,0,0-1.93,1.75c0,3.4,9.6,2.56,9.6,10.66a7.49,7.49,0,0,1-7.8,7.71A8.29,8.29,0,0,1,458.49,148.26Z"/><path class="cls-1" d="M489.5,147.93v-3.76h5.12v3.76c0,.9.84,1.57,2.08,1.57s2.08-.66,2.08-1.57V129.83h5.12v18.09c0,3.79-3,6.59-7.2,6.59S489.5,151.72,489.5,147.93Z"/><path class="cls-1" d="M514.36,129.83v15.78a3.79,3.79,0,0,0,7.59,0V129.83h5.12v15.78a8.91,8.91,0,1,1-17.82,0V129.83Z"/><path class="cls-1" d="M531.25,148.26l4.73-2.14a3.41,3.41,0,0,0,3.4,3.31,2.61,2.61,0,0,0,2.8-2.68c0-4-9.57-2.77-9.57-10.48a6.58,6.58,0,0,1,6.93-6.74,7.05,7.05,0,0,1,6.83,4.67l-4.46,2a2.43,2.43,0,0,0-2.29-1.78,1.74,1.74,0,0,0-1.93,1.75c0,3.4,9.6,2.56,9.6,10.66a7.49,7.49,0,0,1-7.8,7.71A8.29,8.29,0,0,1,531.25,148.26Z"/><path class="cls-1" d="M555.66,135h-6v-5.12h17V135h-5.93v19.27h-5.12Z"/><path class="cls-1" d="M327.2,177.33v13h-5.12v-25L336,179V166h5.12v25Z"/><path class="cls-1" d="M346.19,178.15a12.49,12.49,0,1,1,12.49,12.49A12.48,12.48,0,0,1,346.19,178.15Zm19.87,0a7.38,7.38,0,1,0-7.38,7.38A7.35,7.35,0,0,0,366.06,178.15Z"/><path class="cls-1" d="M391.85,171.07h-6V166h17v5.12H397v19.27h-5.12Z"/><path class="cls-1" d="M407.17,166h15.66v5.12H412.29v4.52h9.33v5.12h-9.33v4.52h10.54v5.12H407.17Z"/><path class="cls-1" d="M427.91,166H433v19.27h8.73v5.12H427.91Z"/><path class="cls-1" d="M445.76,166h5.12v19.27h8.73v5.12H445.76Z"/><path class="cls-1" d="M463.61,166h5.12v24.39h-5.12Z"/><path class="cls-1" d="M479.69,177.33v13h-5.12v-25L488.51,179V166h5.12v25Z"/><path class="cls-1" d="M498.68,178.15a12.53,12.53,0,0,1,21.68-8.52l-3.64,3.64a7.2,7.2,0,0,0-5.45-2.44,7.32,7.32,0,1,0,0,14.63,7.21,7.21,0,0,0,4.09-1.23v-3.52h-4.7v-5.12h9.54v11.56a13.42,13.42,0,0,1-8.88,3.49A12.51,12.51,0,0,1,498.68,178.15Z"/><path class="cls-2" d="M343,132h-6v-5.12h17V132h-5.93v19.27H343Z"/><path class="cls-2" d="M358.33,126.83h5.12v9.63h7.26v-9.63h5.12v24.39H370.7v-9.63h-7.26v9.63h-5.12Z"/><path class="cls-2" d="M381.66,126.83h15.66V132H386.78v4.52h9.33v5.12h-9.33v4.52h10.54v5.12H381.66Z"/><path class="cls-2" d="M414.77,151.22,410,142.64h-2.5v8.58H402.4V126.83h9.24a7.95,7.95,0,0,1,3.61,15l5.45,9.39Zm-7.26-13.7h4.12a2.78,2.78,0,0,0,0-5.57h-4.12Z"/><path class="cls-2" d="M425,126.83h15.66V132H430.09v4.52h9.33v5.12h-9.33v4.52h10.54v5.12H425Z"/><path class="cls-2" d="M445,137l1-10.15h6L448.54,137Z"/><path class="cls-2" d="M455.49,145.26l4.73-2.14a3.41,3.41,0,0,0,3.4,3.31,2.61,2.61,0,0,0,2.8-2.68c0-4-9.57-2.77-9.57-10.48a6.58,6.58,0,0,1,6.93-6.74,7.05,7.05,0,0,1,6.83,4.67l-4.46,2a2.43,2.43,0,0,0-2.29-1.78,1.74,1.74,0,0,0-1.93,1.75c0,3.4,9.6,2.56,9.6,10.66a7.49,7.49,0,0,1-7.8,7.71A8.29,8.29,0,0,1,455.49,145.26Z"/><path class="cls-2" d="M486.5,144.93v-3.76h5.12v3.76c0,.9.84,1.57,2.08,1.57s2.08-.66,2.08-1.57V126.83h5.12v18.09c0,3.79-3,6.59-7.2,6.59S486.5,148.72,486.5,144.93Z"/><path class="cls-2" d="M511.36,126.83v15.78a3.79,3.79,0,0,0,7.59,0V126.83h5.12v15.78a8.91,8.91,0,1,1-17.82,0V126.83Z"/><path class="cls-2" d="M528.25,145.26l4.73-2.14a3.41,3.41,0,0,0,3.4,3.31,2.61,2.61,0,0,0,2.8-2.68c0-4-9.57-2.77-9.57-10.48a6.58,6.58,0,0,1,6.93-6.74,7.05,7.05,0,0,1,6.83,4.67l-4.46,2a2.43,2.43,0,0,0-2.29-1.78,1.74,1.74,0,0,0-1.93,1.75c0,3.4,9.6,2.56,9.6,10.66a7.49,7.49,0,0,1-7.8,7.71A8.29,8.29,0,0,1,528.25,145.26Z"/><path class="cls-2" d="M552.66,132h-6v-5.12h17V132h-5.93v19.27h-5.12Z"/><path class="cls-2" d="M324.2,174.33v13h-5.12v-25L333,176V163h5.12v25Z"/><path class="cls-2" d="M343.19,175.15a12.49,12.49,0,1,1,12.49,12.49A12.48,12.48,0,0,1,343.19,175.15Zm19.87,0a7.38,7.38,0,1,0-7.38,7.38A7.35,7.35,0,0,0,363.06,175.15Z"/><path class="cls-2" d="M388.85,168.07h-6V163h17v5.12H394v19.27h-5.12Z"/><path class="cls-2" d="M404.17,163h15.66v5.12H409.29v4.52h9.33v5.12h-9.33v4.52h10.54v5.12H404.17Z"/><path class="cls-2" d="M424.91,163H430v19.27h8.73v5.12H424.91Z"/><path class="cls-2" d="M442.76,163h5.12v19.27h8.73v5.12H442.76Z"/><path class="cls-2" d="M460.61,163h5.12v24.39h-5.12Z"/><path class="cls-2" d="M476.69,174.33v13h-5.12v-25L485.51,176V163h5.12v25Z"/><path class="cls-2" d="M495.68,175.15a12.53,12.53,0,0,1,21.68-8.52l-3.64,3.64a7.2,7.2,0,0,0-5.45-2.44,7.32,7.32,0,1,0,0,14.63,7.21,7.21,0,0,0,4.09-1.23v-3.52h-4.7v-5.12h9.54v11.56a13.42,13.42,0,0,1-8.88,3.49A12.51,12.51,0,0,1,495.68,175.15Z"/><path class="cls-3" d="M145.7,514.88a40.4,40.4,0,0,1-2.31-9.91,54.9,54.9,0,0,1-.21-10.28,60,60,0,0,1,5.27-20,73.29,73.29,0,0,1,11.41-17.52,107,107,0,0,1,15.3-14.24,119.5,119.5,0,0,1,17.69-11.19,133.68,133.68,0,0,1,19.38-8c13.33-4.31,27.56-6.55,41.12-7.84a164.75,164.75,0,0,1,20.08-.54c3.3.17,8.56.51,12,.78s6.9.61,10.34,1c13.78,1.62,26.48,4.76,39.8,8.83S361.86,436.45,374.2,443a208.73,208.73,0,0,1,18,10.86c2.91,1.93,5.75,4,8.56,6.07l8.13,6.13c10.76,8.26,21.37,16.77,31.83,25.22s20.79,16.76,31.61,24.08a247.27,247.27,0,0,0,34.13,19.32c5.94,2.76,12,5.3,18.13,7.56a195.35,195.35,0,0,0,18.66,5.94,168.16,168.16,0,0,0,19.09,3.9,129.56,129.56,0,0,0,19.3,1.26q4.82-.07,9.61-.59c1.6-.19,3.15-.39,4.79-.65l4.93-.81c3.29-.53,6.56-1.17,9.83-1.79s6.54-1.32,9.79-2.07a334.88,334.88,0,0,0,75.84-26.26c-5.6,3.78-11.44,7.21-17.38,10.49s-12,6.25-18.25,9-12.49,5.38-18.88,7.72S629,553,622.52,555s-13.12,3.73-19.76,5.33l-5,1.16c-1.67.37-3.45.72-5.18,1q-5.23.88-10.52,1.27a147.09,147.09,0,0,1-41.77-3.45,219.58,219.58,0,0,1-39.57-12.86A244,244,0,0,1,464,527.93c-11.69-7.54-22.51-16.05-33.1-24.4s-21-16.74-31.69-24.86l-8-6.09c-8-5.44-18.8-12.69-24.48-15.82-11.35-6.3-24-12.61-35.52-16.76A214.85,214.85,0,0,0,293,430.19c-3.24-.5-6.38-1-9.65-1.35a152.32,152.32,0,0,0-27.68-1.19c-14.23.5-28.9,2.54-40.47,6a120.1,120.1,0,0,0-35.5,15.62,100.83,100.83,0,0,0-15.31,12.09,53.11,53.11,0,0,0-10.92,15.32,54.85,54.85,0,0,0-4.7,15.14,56.1,56.1,0,0,0-.48,15.48A74.06,74.06,0,0,0,145.7,514.88Z"/><path class="cls-3" d="M99.87,551.93c6.28-1.84,14.22-2.28,20.75-2.12,7.26.48,10.27,1.57,16.43,2.75s10.17,2.65,16.24,4.45l8.79,2.66,4.3,1.16c1.43.39,2.88.69,4.31,1.05a125.39,125.39,0,0,0,17.22,2.8,67.78,67.78,0,0,0,16.53-.42c1.27-.26,2.57-.48,3.76-.84a30.31,30.31,0,0,0,3.5-1.13c.56-.21,1.05-.5,1.58-.73.26-.13.53-.23.78-.37l.7-.44.71-.42.37-.22.46-.32,1.82-1.25a50.06,50.06,0,0,0,6.18-4.92,24.25,24.25,0,0,0,4.27-5.5c2.33-3.85,3.24-8.57,3.23-13.71a46.94,46.94,0,0,0-.67-7.93,34.87,34.87,0,0,0-.79-3.92c-.16-.63-.26-1.31-.47-1.91l-.6-1.84a31.28,31.28,0,0,0-7.68-12.64,37.35,37.35,0,0,0-13.27-7.89,70.24,70.24,0,0,0-16.64-3.49c-1.43-.11-3-.33-4.31-.33-.69,0-1.38-.07-2.07-.07l-2.08.06a42.31,42.31,0,0,0-8.33,1.2c-11.08,2.65-21.51,9.48-29.19,19.24,0-2.36.52-7.23.52-7.23s8.72-12.28,26.21-19.38a49.08,49.08,0,0,1,9.64-2.93l2.51-.43c.84-.12,1.69-.17,2.54-.26l1.28-.12c.42,0,.81,0,1.22-.05l2.43-.09c1.62-.08,3.26,0,4.89,0s3.29.2,4.94.29,3.32.39,5,.61,3.33.6,5,1a51.92,51.92,0,0,1,5,1.51l2.47.91c.82.33,1.62.74,2.43,1.11a44.52,44.52,0,0,1,9.16,5.87,43.85,43.85,0,0,1,12.47,17.86l1,2.52c.32.84.48,1.7.73,2.54a49.18,49.18,0,0,1,1.2,5.1,62.37,62.37,0,0,1,1.19,10.42,40.27,40.27,0,0,1-.18,5.45c-.1.92-.15,1.84-.3,2.76l-.54,2.78c-.1.46-.17.93-.3,1.39L245.7,548c-.3.92-.54,1.85-.9,2.75l-1.14,2.69a28.79,28.79,0,0,1-1.36,2.59,40.13,40.13,0,0,1-7.1,9,60.65,60.65,0,0,1-8.31,6.49l-2,1.31-.5.32-.63.37-1.29.73-1.3.72c-.44.22-.88.4-1.32.6-.88.37-1.76.8-2.65,1.11a48.44,48.44,0,0,1-10.63,2.49,74.6,74.6,0,0,1-20.31-.59,115.12,115.12,0,0,1-18.93-4.68c-3.06-1-6-2.17-9-3.34l-4.39-1.88c-1.47-.62-2.77-1.22-4.16-1.84q-8.27-3.6-16.86-6.72C121.44,555.83,114.36,553.67,99.87,551.93Z"/><path class="cls-3" d="M213.4,611.51,235.68,592c13.68-12,28.76-30.62,23.9-69.06-2.21-17.47-8.93-30.9-21-38.4C215,469.9,190.13,471.85,180.89,474a58.34,58.34,0,0,0-15.36,6.32s7.62-11.11,16.12-17.64c14-10.78,24-15.31,47.39-19.9,32.11-6.3,81.26-6.34,133.18,29.82,17.25,12,31.51,23.2,44.09,33.07,11.32,8.88,21.09,16.55,29.67,22.1l10.56,6.84L434.75,539c-69.06,25.84-191.81,63.43-193,63.81ZM207.34,462c12.48.82,26.44,4,38.37,12.09,14.86,10.14,23.76,26.06,26.45,47.3,3.69,29.18-3.06,48.85-12.3,62.59,35.79-11.17,108-34.08,159.08-52.6-6.28-4.6-13-9.91-20.45-15.71C386,505.9,371.93,494.83,355,483c-38.59-26.87-80-36.26-123-27.89A164.83,164.83,0,0,0,207.34,462Z"/><path class="cls-3" d="M391.28,549.51c-20.54-18.83-51.7-43.7-75-56.8-34.43-19.35-83.07-14.68-83.56-14.63l-.86-8.4c2.1-.21,51.76-5,88.55,15.67,23.9,13.43,55.69,38.78,76.58,57.94Z"/><path class="cls-3" d="M363.63,557.92c-27.2-23.22-40.16-32.57-60.29-43.46-24.77-13.41-44.55-13.19-44.75-13.18l-.19-8.44c.89,0,22.09-.35,49,14.2,20.75,11.23,34,20.79,61.75,44.47Z"/><path class="cls-3" d="M337.42,567.49a230.78,230.78,0,0,0-36.18-26.1,118.74,118.74,0,0,0-34.66-13.13l1.48-8.31a125.19,125.19,0,0,1,37.46,14.17A239.28,239.28,0,0,1,343,561.17Z"/><path class="cls-3" d="M303.24,578.19c-10.22-9.56-37.44-22.42-37.71-22.55l3.59-7.64c1.17.55,28.7,13.56,39.89,24Z"/><path class="cls-3" d="M288.3,600.5s120.62-34.58,166.62-57.12c0,0,66.45,40.94,124.69,36.34s101.86-37,113.21-45c0,0-35.49,52.91-126.23,78.47C500.57,631.79,367.72,620.53,288.3,600.5Z"/><path class="cls-3" d="M327.3,631.43c0,5.34-5.71,12.3-12.76,12.76s-12.76-4-12.76-12.76c0-5.34,5.71-12.3,12.76-12.76S327.3,622.68,327.3,631.43Z"/><path class="cls-3" d="M363.32,650.22c-5.9,1.5-11.62-4.16-12.77-8.75-1.15-5.88,2.7-12.7,8.6-12.68,5.9-1.5,11.62,4.16,12.77,8.75C373.08,643.42,369.22,650.24,363.32,650.22Z"/><path class="cls-3" d="M414.74,645.38c0,4.11-4.39,9.45-9.81,9.81s-9.81-3.08-9.81-9.81c0-4.11,4.39-9.45,9.81-9.81S414.74,638.65,414.74,645.38Z"/><path class="cls-3" d="M455.81,647.82c0,6-4.15,9.52-9.27,9.27s-9.27-5.08-9.27-9.27c0-6,4.15-9.52,9.27-9.27S455.81,643.64,455.81,647.82Z"/><path class="cls-3" d="M494,646.82c0,3.36-3.59,7.72-8,8s-8-2.52-8-8c0-3.35,3.59-7.72,8-8S494,641.33,494,646.82Z"/><path class="cls-3" d="M567.5,635.24c0,5-3.26,7.55-7.27,7.27s-7.27-4.26-7.27-7.27c0-5,3.26-7.55,7.27-7.27S567.5,632.23,567.5,635.24Z"/><path class="cls-3" d="M595.92,626.46c0,2.5-2.68,5.76-6,6s-6-1.88-6-6c0-2.5,2.68-5.76,6-6S595.92,622.36,595.92,626.46Z"/><path class="cls-3" d="M617.88,614.67c0,3-2,4.56-4.4,4.4a5,5,0,0,1-4.4-4.4c0-3,2-4.56,4.4-4.4A5,5,0,0,1,617.88,614.67Z"/><path class="cls-3" d="M205.32,600.5c0,3.36-3.59,7.72-8,8s-8-2.52-8-8c0-3.36,3.59-7.72,8-8S205.32,595,205.32,600.5Z"/><path class="cls-3" d="M167.88,592.38c0,5-3.26,7.55-7.27,7.27s-7.27-4.26-7.27-7.27c0-5,3.26-7.55,7.27-7.27S167.88,589.37,167.88,592.38Z"/><path class="cls-3" d="M135.76,580.18c0,2.5-2.68,5.76-6,6s-6-1.88-6-6c0-2.5,2.68-5.76,6-6S135.76,576.08,135.76,580.18Z"/><path class="cls-3" d="M288.3,611.46s-86.07,27.67-161.4-8.56c0,0,10.43,18.65,34.64,42.15C161.55,645,246.1,639.13,288.3,611.46Z"/><path class="cls-3" d="M532.57,642.71c0,3.36-3.59,7.72-8,8s-8-2.52-8-8c0-3.35,3.59-7.72,8-8S532.57,637.22,532.57,642.71Z"/><path class="cls-3" d="M637.83,600.91c0,3-2,4.56-4.4,4.4a5,5,0,0,1-4.4-4.4c0-3,2-4.56,4.4-4.4A5,5,0,0,1,637.83,600.91Z"/><path class="cls-1" d="M173,208.79h16.41v30.9h23.27v-30.9h16.41V287H212.72V256.1H189.45V287H173Z"/><path class="cls-1" d="M390.07,288.93l-14-31.47L362,288.93l-36.79-80.13h18.15l19.12,45.38,5.89-13.9-14.1-31.47h16.22l5.6,13.23,5.5-13.23h16.22l-14.1,31.47,5.89,13.9,19.12-45.38h18.15Z"/><path class="cls-1" d="M467.1,208.79h50.2v16.41H483.51v14.48h29.93V256.1H483.51V287H467.1Z"/><path class="cls-1" d="M569,276.38H541.4L537,287H518.42l36.79-80.13L592,287H573.46Zm-8.08-14.48-7.72-18.54-7.72,18.54Z"/><path class="cls-1" d="M641.13,287l-15.25-27.52h-8V287H601.45v-78.2h29.64c14.39,0,25.3,10.81,25.3,25.3,0,10.33-5.41,18.73-13.71,22.79L660.15,287Zm-23.27-43.93h13.23c5.41,0,8.88-3.48,8.88-9s-3.48-8.88-8.88-8.88H617.86Z"/><path class="cls-1" d="M120.26,304.72h16.41v78.2H120.26Z"/><path class="cls-1" d="M151.58,337.26l3.28-32.53h19.21l-11,32.53Z"/><path class="cls-1" d="M186.48,304.72h16.41v61.78h28v16.41H186.48Z"/><path class="cls-1" d="M241.31,304.72h16.41v61.78h28v16.41H241.31Z"/><path class="cls-1" d="M321.31,343.82a40.09,40.09,0,0,1,40.35-40.06c11,0,21.14,4.44,29.15,12.74l-11.68,11.68a23.1,23.1,0,0,0-17.47-7.82,23.46,23.46,0,1,0-.1,46.92,23.11,23.11,0,0,0,13.13-4V352H359.63V335.62h30.6v37.07c-8.3,7.14-17.86,11.2-28.48,11.2A40.11,40.11,0,0,1,321.31,343.82Z"/><path class="cls-1" d="M315.55,268.4a32.43,32.43,0,0,1-11.66,12.78c-14.81,9.82-34.9,10.39-49-.25-10-7.56-14.76-22-4.74-34.48,4.77-6,6.93-13,13.87-16.55a42.46,42.46,0,0,1,25-4.26c5.94.72,9.71,4.05,11.72,9.54a23.89,23.89,0,0,1,.92,13.91,8.51,8.51,0,0,1-7.82,6.65,9.46,9.46,0,0,1-3-.63c-3.29-1-6.56-2.06-9.86-3-1.21-.35-1.87.34-2.3,1.49-2.15,5.8.21,10.22,6.33,11.18,5.35.83,10.8.56,15.74-1.7,5.75-2.63,10.8-6.83,11.7-13.14,1.12-7.84-1.14-15-5.67-21.38-2.88-4.07-8.5-6.82-13.27-7.71a67.11,67.11,0,0,0-33.68,2.07,13.71,13.71,0,0,0-8.24,6.89c-2.83,5.53-5.29,11.26-7.9,16.91a2.22,2.22,0,0,1-.87,1.12c-.12-1.3-.35-2.6-.36-3.9-.07-14.62,7-24.62,19.87-31a35.9,35.9,0,0,1,14-3.59c9-.57,18.08-.8,26.57,3.08a27.84,27.84,0,0,1,5.69,4c1.93,1.57,3.58,3.49,5.55,5,11.53,8.72,14.76,24,7.35,35.3-3.12,4.78-7.64,8-12.55,10.67-2.43,1.33-4.92,2.57-7.44,3.7-6.66,3-13.3,2-19.83-.43a81.4,81.4,0,0,1-7.48-3.59c-2.68-1.33-3.8-3.71-4.26-6.51a29.64,29.64,0,0,1,1.58-14.74,6.69,6.69,0,0,1,5.91-4.58,15.32,15.32,0,0,1,9.09,1.54,9.54,9.54,0,0,1,2.44,2.16,31.57,31.57,0,0,0,2.38,2.87c.72.61,1.94,1.3,2.66,1.08s1.42-1.46,1.66-2.38c1.18-4.6-1.25-9.94-5.6-12.68a20.55,20.55,0,0,0-25.54,3.44,3.47,3.47,0,0,0-.78,1c-1.53,4.06-3.63,8-4.38,12.22-.92,5.16-.83,12,2.36,16.39,3.06,4.26,7,6.91,10.62,10.71,2.28,2.41,5.77,2.1,8.86,2.24,8.14.38,15.53-2.44,22.76-5.74C307.92,272.27,311.71,270.29,315.55,268.4Z"/><path class="cls-1" d="M474.22,363.55a32.29,32.29,0,0,1-11.61,12.72c-14.75,9.77-34.75,10.35-48.75-.25-9.95-7.53-14.69-21.89-4.72-34.33,4.75-5.93,6.9-12.93,13.81-16.48A42.27,42.27,0,0,1,447.89,321c5.92.72,9.67,4,11.67,9.49a23.79,23.79,0,0,1,.92,13.85,8.47,8.47,0,0,1-7.79,6.62,9.41,9.41,0,0,1-2.95-.63c-3.28-1-6.53-2.05-9.82-3-1.2-.35-1.86.34-2.29,1.49-2.14,5.78.21,10.18,6.3,11.13a27.21,27.21,0,0,0,15.67-1.69c5.72-2.62,10.75-6.8,11.65-13.08,1.12-7.81-1.13-14.91-5.64-21.29-2.87-4.05-8.46-6.79-13.21-7.68a66.81,66.81,0,0,0-33.53,2.06,13.65,13.65,0,0,0-8.2,6.86c-2.82,5.51-5.27,11.21-7.87,16.84a2.21,2.21,0,0,1-.87,1.12c-.12-1.29-.35-2.59-.36-3.88-.07-14.55,7-24.51,19.79-30.88a35.74,35.74,0,0,1,13.93-3.58c9-.57,18-.79,26.45,3.06a27.71,27.71,0,0,1,5.66,4c1.92,1.56,3.56,3.48,5.53,5,11.48,8.68,14.7,23.86,7.32,35.15-3.11,4.76-7.61,7.95-12.5,10.63-2.42,1.32-4.89,2.56-7.41,3.68-6.63,3-13.25,2-19.75-.42a81,81,0,0,1-7.45-3.57c-2.67-1.32-3.79-3.69-4.24-6.48a29.51,29.51,0,0,1,1.58-14.67,6.67,6.67,0,0,1,5.88-4.56A15.25,15.25,0,0,1,445.4,338a9.5,9.5,0,0,1,2.43,2.15,31.43,31.43,0,0,0,2.37,2.86c.72.61,1.93,1.3,2.65,1.07s1.42-1.46,1.65-2.37c1.17-4.58-1.24-9.9-5.58-12.62a20.46,20.46,0,0,0-25.42,3.43,3.45,3.45,0,0,0-.78,1c-1.52,4-3.61,8-4.36,12.17-.92,5.13-.82,11.91,2.35,16.32,3,4.24,7,6.88,10.57,10.67,2.27,2.4,5.75,2.09,8.82,2.23,8.11.37,15.46-2.43,22.66-5.72C466.62,367.4,470.4,365.43,474.22,363.55Z"/><path class="cls-2" d="M169,203.79h16.41v30.9h23.27v-30.9h16.41V282H208.72V251.1H185.45V282H169Z"/><path class="cls-2" d="M386.07,283.93l-14-31.47L358,283.93l-36.79-80.13h18.15l19.12,45.38,5.89-13.9-14.1-31.47h16.22l5.6,13.23,5.5-13.23h16.22l-14.1,31.47,5.89,13.9,19.12-45.38h18.15Z"/><path class="cls-2" d="M463.1,203.79h50.2v16.41H479.51v14.48h29.93V251.1H479.51V282H463.1Z"/><path class="cls-2" d="M565,271.38H537.4L533,282H514.42l36.79-80.13L588,282H569.46Zm-8.08-14.48-7.72-18.54-7.72,18.54Z"/><path class="cls-2" d="M637.13,282l-15.25-27.52h-8V282H597.45v-78.2h29.64c14.39,0,25.3,10.81,25.3,25.3,0,10.33-5.41,18.73-13.71,22.79L656.15,282Zm-23.27-43.93h13.23c5.41,0,8.88-3.48,8.88-9s-3.48-8.88-8.88-8.88H613.86Z"/><path class="cls-2" d="M116.26,299.72h16.41v78.2H116.26Z"/><path class="cls-2" d="M147.58,332.26l3.28-32.53h19.21l-11,32.53Z"/><path class="cls-2" d="M182.48,299.72h16.41v61.78h28v16.41H182.48Z"/><path class="cls-2" d="M237.31,299.72h16.41v61.78h28v16.41H237.31Z"/><path class="cls-2" d="M317.31,338.82a40.09,40.09,0,0,1,40.35-40.06c11,0,21.14,4.44,29.15,12.74l-11.68,11.68a23.1,23.1,0,0,0-17.47-7.82,23.46,23.46,0,1,0-.1,46.92,23.11,23.11,0,0,0,13.13-4V347H355.63V330.62h30.6v37.07c-8.3,7.14-17.86,11.2-28.48,11.2A40.11,40.11,0,0,1,317.31,338.82Z"/><g id="cOrWyo.tif"><path class="cls-2" d="M311.55,263.4a32.43,32.43,0,0,1-11.66,12.78c-14.81,9.82-34.9,10.39-49-.25-10-7.56-14.76-22-4.74-34.48,4.77-6,6.93-13,13.87-16.55a42.46,42.46,0,0,1,25-4.26c5.94.72,9.71,4.05,11.72,9.54a23.89,23.89,0,0,1,.92,13.91,8.51,8.51,0,0,1-7.82,6.65,9.46,9.46,0,0,1-3-.63c-3.29-1-6.56-2.06-9.86-3-1.21-.35-1.87.34-2.3,1.49-2.15,5.8.21,10.22,6.33,11.18,5.35.83,10.8.56,15.74-1.7,5.75-2.63,10.8-6.83,11.7-13.14,1.12-7.84-1.14-15-5.67-21.38-2.88-4.07-8.5-6.82-13.27-7.71a67.11,67.11,0,0,0-33.68,2.07,13.71,13.71,0,0,0-8.24,6.89c-2.83,5.53-5.29,11.26-7.9,16.91a2.22,2.22,0,0,1-.87,1.12c-.12-1.3-.35-2.6-.36-3.9-.07-14.62,7-24.62,19.87-31a35.9,35.9,0,0,1,14-3.59c9-.57,18.08-.8,26.57,3.08a27.84,27.84,0,0,1,5.69,4c1.93,1.57,3.58,3.49,5.55,5,11.53,8.72,14.76,24,7.35,35.3-3.12,4.78-7.64,8-12.55,10.67-2.43,1.33-4.92,2.57-7.44,3.7-6.66,3-13.3,2-19.83-.43a81.4,81.4,0,0,1-7.48-3.59c-2.68-1.33-3.8-3.71-4.26-6.51a29.64,29.64,0,0,1,1.58-14.74,6.69,6.69,0,0,1,5.91-4.58,15.32,15.32,0,0,1,9.09,1.54,9.54,9.54,0,0,1,2.44,2.16,31.57,31.57,0,0,0,2.38,2.87c.72.61,1.94,1.3,2.66,1.08s1.42-1.46,1.66-2.38c1.18-4.6-1.25-9.94-5.6-12.68a20.55,20.55,0,0,0-25.54,3.44,3.47,3.47,0,0,0-.78,1c-1.53,4.06-3.63,8-4.38,12.22-.92,5.16-.83,12,2.36,16.39,3.06,4.26,7,6.91,10.62,10.71,2.28,2.41,5.77,2.1,8.86,2.24,8.14.38,15.53-2.44,22.76-5.74C303.92,267.27,307.71,265.29,311.55,263.4Z"/></g><g id="cOrWyo.tif-2" data-name="cOrWyo.tif"><path class="cls-2" d="M470.22,358.55a32.29,32.29,0,0,1-11.61,12.72c-14.75,9.77-34.75,10.35-48.75-.25-9.95-7.53-14.69-21.89-4.72-34.33,4.75-5.93,6.9-12.93,13.81-16.48A42.27,42.27,0,0,1,443.89,316c5.92.72,9.67,4,11.67,9.49a23.79,23.79,0,0,1,.92,13.85,8.47,8.47,0,0,1-7.79,6.62,9.41,9.41,0,0,1-2.95-.63c-3.28-1-6.53-2.05-9.82-3-1.2-.35-1.86.34-2.29,1.49-2.14,5.78.21,10.18,6.3,11.13a27.21,27.21,0,0,0,15.67-1.69c5.72-2.62,10.75-6.8,11.65-13.08,1.12-7.81-1.13-14.91-5.64-21.29-2.87-4.05-8.46-6.79-13.21-7.68a66.81,66.81,0,0,0-33.53,2.06,13.65,13.65,0,0,0-8.2,6.86c-2.82,5.51-5.27,11.21-7.87,16.84a2.21,2.21,0,0,1-.87,1.12c-.12-1.29-.35-2.59-.36-3.88-.07-14.55,7-24.51,19.79-30.88a35.74,35.74,0,0,1,13.93-3.58c9-.57,18-.79,26.45,3.06a27.71,27.71,0,0,1,5.66,4c1.92,1.56,3.56,3.48,5.53,5,11.48,8.68,14.7,23.86,7.32,35.15-3.11,4.76-7.61,7.95-12.5,10.63-2.42,1.32-4.89,2.56-7.41,3.68-6.63,3-13.25,2-19.75-.42a81,81,0,0,1-7.45-3.57c-2.67-1.32-3.79-3.69-4.24-6.48a29.51,29.51,0,0,1,1.58-14.67,6.67,6.67,0,0,1,5.88-4.56A15.25,15.25,0,0,1,441.4,333a9.5,9.5,0,0,1,2.43,2.15,31.43,31.43,0,0,0,2.37,2.86c.72.61,1.93,1.3,2.65,1.07s1.42-1.46,1.65-2.37c1.17-4.58-1.24-9.9-5.58-12.62a20.46,20.46,0,0,0-25.42,3.43,3.45,3.45,0,0,0-.78,1c-1.52,4-3.61,8-4.36,12.17-.92,5.13-.82,11.91,2.35,16.32,3,4.24,7,6.88,10.57,10.67,2.27,2.4,5.75,2.09,8.82,2.23,8.11.37,15.46-2.43,22.66-5.72C462.62,362.4,466.4,360.43,470.22,358.55Z"/></g><path class="cls-4" d="M587.55,389.41c22.42-.24,39.2,19.74,37.17,41.77a37.75,37.75,0,0,1-38.52,34.37C564,464.93,547.89,446,550,423.67,551.81,404,568.51,389,587.55,389.41Z"/><path class="cls-4" d="M590.89,321.75c6.46,2.62,9.55,9.15,7.72,14.94a81.62,81.62,0,0,1-4,9.12c-2.78,6.09-5.53,12.33-3.39,19.11,1.19,3.78,3.6,7.18,5.44,10.76a3,3,0,0,1,.19.79c-5,0-10-.08-15,0-2.82.06-3.37-2-3.79-3.92A27.37,27.37,0,0,1,581,352.95c2.82-5,6.06-9.81,9.36-14.54,2.48-3.57,4.71-6.67,3.59-10.92A19.47,19.47,0,0,0,590.89,321.75Z"/><path class="cls-4" d="M575.54,378c-3,1.38-5.16,2.49-7.4,3.28-.53.19-1.55-.52-2.13-1-4-3.63-4.81-8.36-3.63-13.25,1.5-6.18-2.73-12.82-2.73-12.82,1.76,0,4.62,1.53,5.79,2.67a13,13,0,0,1,3.8,8.15C569.4,370.16,569.66,374.81,575.54,378Z"/><path class="cls-4" d="M609.08,382c-3-1.44-5.21-2.37-7.26-3.58-.48-.29-.6-1.52-.57-2.31.22-5.4,3.34-9,7.85-11.27,5.71-2.8,8.1-10.3,8.1-10.3,1.12,1.35,1.78,4.53,1.65,6.16a13,13,0,0,1-3.83,8.14C611.19,372.23,607.78,375.4,609.08,382Z"/><path class="cls-4" d="M634.84,409.74c-1.46-3-2.62-5.09-3.47-7.31-.2-.53.48-1.56,1-2.16,3.52-4.1,8.23-5,13.15-4,6.22,1.34,12.74-3.06,12.74-3.06,0,1.76-1.41,4.66-2.53,5.85a13,13,0,0,1-8,4C642.55,403.4,637.91,403.78,634.84,409.74Z"/><path class="cls-4" d="M632.19,450.16c1.45-3,2.39-5.2,3.61-7.24.29-.48,1.52-.59,2.31-.56,5.4.24,9,3.38,11.23,7.9,2.78,5.72,10.27,8.14,10.27,8.14-1.35,1.12-4.54,1.76-6.16,1.62a13,13,0,0,1-8.12-3.86C641.92,452.31,638.76,448.89,632.19,450.16Z"/><path class="cls-4" d="M599.46,475.41c3.1-1.22,5.28-2.21,7.56-2.89.54-.16,1.52.6,2.08,1.15,3.81,3.83,4.37,8.6,2.93,13.42-1.82,6.09,2.06,12.94,2.06,12.94-1.75-.09-4.54-1.77-5.64-3a13,13,0,0,1-3.37-8.34C605.18,483.58,605.16,478.92,599.46,475.41Z"/><path class="cls-4" d="M564,470.49c2.92,1.6,5.08,2.65,7.06,4,.47.31.52,1.55.44,2.33-.51,5.38-3.82,8.86-8.44,10.83-5.85,2.5-8.63,9.86-8.63,9.86-1.05-1.41-1.54-4.62-1.32-6.24a13,13,0,0,1,4.25-7.92C561.32,480.11,564.89,477.12,564,470.49Z"/><path class="cls-4" d="M538.06,440.65c1.27,3.08,2.29,5.25,3,7.52.17.54-.57,1.53-1.12,2.09-3.78,3.87-8.53,4.49-13.37,3.12-6.12-1.73-12.91,2.24-12.91,2.24.07-1.76,1.71-4.56,2.89-5.68a13,13,0,0,1,8.29-3.49C530,446.48,534.63,446.4,538.06,440.65Z"/><path class="cls-4" d="M542.21,401.75c-1.36,3-2.23,5.28-3.38,7.35-.27.49-1.5.64-2.29.63-5.41-.07-9.14-3.09-11.47-7.55-3-5.63-10.52-7.81-10.52-7.81,1.32-1.16,4.48-1.91,6.11-1.82a13,13,0,0,1,8.24,3.6C532.41,399.91,535.67,403.23,542.21,401.75Z"/><path class="cls-4" d="M658.94,352.44c3.08,6.25,1,13.18-4.18,16.29a81.62,81.62,0,0,1-9,4.18c-6.13,2.69-12.33,5.52-15.25,12-1.63,3.62-2.09,7.75-3.1,11.65a3,3,0,0,1-.38.71c-3.75-3.34-7.41-6.71-11.19-9.94-2.15-1.83-1.21-3.7-.22-5.45a27.37,27.37,0,0,1,15.19-12.74c5.44-1.87,11.06-3.29,16.66-4.62,4.23-1,8-1.84,9.95-5.76A19.47,19.47,0,0,0,658.94,352.44Z"/><path class="cls-4" d="M691.82,429.18c-2.61,6.47-9.14,9.56-14.92,7.74a81.62,81.62,0,0,1-9.13-3.94c-6.1-2.77-12.34-5.51-19.11-3.36-3.78,1.2-7.17,3.61-10.75,5.46a3,3,0,0,1-.79.19c0-5,.06-10-.05-15-.07-2.82,2-3.37,3.92-3.8a27.37,27.37,0,0,1,19.62,2.83c5,2.81,9.82,6,14.55,9.33,3.57,2.48,6.67,4.7,10.92,3.57A19.47,19.47,0,0,0,691.82,429.18Z"/><path class="cls-4" d="M658.79,501.74c-6.39,2.78-13.22.41-16.07-4.95a81.62,81.62,0,0,1-3.74-9.21c-2.4-6.25-4.92-12.58-11.26-15.8-3.54-1.8-7.65-2.46-11.49-3.65a3,3,0,0,1-.69-.42c3.52-3.59,7.06-7.08,10.46-10.7,1.93-2.06,3.76-1,5.45,0a27.37,27.37,0,0,1,12,15.78c1.6,5.53,2.76,11.2,3.82,16.86.81,4.27,1.46,8,5.28,10.21A19.47,19.47,0,0,0,658.79,501.74Z"/><path class="cls-4" d="M582.68,530.29c-6.44-2.66-9.48-9.22-7.62-15a81.62,81.62,0,0,1,4-9.1c2.82-6.07,5.62-12.29,3.52-19.08-1.17-3.79-3.55-7.21-5.37-10.8a3,3,0,0,1-.18-.79c5,0,10,.15,15,.07,2.82,0,3.36,2,3.76,4a27.37,27.37,0,0,1-3,19.6c-2.86,5-6.13,9.77-9.46,14.47-2.51,3.55-4.76,6.63-3.67,10.89A19.47,19.47,0,0,0,582.68,530.29Z"/><path class="cls-4" d="M508.67,494.08c-2.17-6.63.84-13.2,6.44-15.53a81.62,81.62,0,0,1,9.52-2.86c6.45-1.8,13-3.72,16.79-9.72,2.12-3.35,3.17-7.38,4.72-11.1a3,3,0,0,1,.48-.65c3.24,3.84,6.39,7.69,9.67,11.42,1.87,2.12.67,3.84-.56,5.43a27.37,27.37,0,0,1-16.84,10.46c-5.65,1.08-11.41,1.69-17.15,2.22-4.33.4-8.13.7-10.66,4.29A19.47,19.47,0,0,0,508.67,494.08Z"/><path class="cls-4" d="M482.59,419.83c2.95-6.32,9.63-9.06,15.31-6.94a81.62,81.62,0,0,1,8.91,4.41c5.94,3.09,12,6.16,18.91,4.37,3.84-1,7.36-3.23,11-4.88a3,3,0,0,1,.8-.15c-.26,5-.59,10-.74,14.95-.08,2.82-2.13,3.26-4.11,3.58a27.37,27.37,0,0,1-19.45-3.86c-4.86-3.07-9.49-6.56-14-10.09-3.43-2.66-6.42-5-10.72-4.15A19.47,19.47,0,0,0,482.59,419.83Z"/><path class="cls-4" d="M521.48,345.42c6.69-2,13.16,1.27,15.31,6.94a81.62,81.62,0,0,1,2.55,9.61c1.59,6.5,3.3,13.1,9.18,17.1,3.28,2.23,7.27,3.41,10.94,5.07a3,3,0,0,1,.64.5c-3.94,3.11-7.89,6.13-11.73,9.3-2.18,1.8-3.86.55-5.41-.73A27.37,27.37,0,0,1,533.05,376c-.89-5.68-1.32-11.46-1.66-17.21-.26-4.34-.43-8.15-3.95-10.79A19.47,19.47,0,0,0,521.48,345.42Z"/><path class="cls-3" d="M249.95,648.26l-1.67,1.38-2.16,6-2-.71,6.42-17.77,2,.71-3.1,8.58,7.82-6.88,2,.72-7.42,6.48L253,658.09l-2-.73Z"/><path class="cls-3" d="M265.44,642.32c2.82.93,3.47,3,2.57,5.72l-.71,2.15c-.94,2.85-2.77,3.89-5.61,2.95l-1.77-.58-2.34,7.08-2-.66L261.52,641Zm-3.16,9c1.49.49,2.43,0,3-1.68l.79-2.38c.54-1.64.22-2.66-1.24-3.14l-1.92-.64-2.4,7.25Z"/><path class="cls-3" d="M271.3,649.44l-.83-.26,1.35-2.07-.75-.23.78-2.5,1.93.6-.71,2.29Z"/><path class="cls-3" d="M282.94,652.43l-.14.49-1.92-.56.17-.6c.48-1.63.13-2.77-1.32-3.2s-2.35.35-2.82,2c-1.19,4.07,4.79,6.23,3.3,11.34-.8,2.75-2.64,4.15-5.42,3.34s-3.55-3-2.75-5.72l.3-1,1.89.55-.33,1.14c-.48,1.63-.08,2.79,1.37,3.21s2.41-.34,2.88-2c1.18-4-4.78-6.2-3.29-11.31.82-2.8,2.62-4.16,5.34-3.37S283.74,649.68,282.94,652.43Z"/><path class="cls-3" d="M298.43,656.51c-1.38,5.53-8.09,6-9.17,10.18l-.07.29,6,1.5-.46,1.86-8-2,.39-1.57c1.48-5.92,8-5.52,9.27-10.68.47-1.89.09-3-1.43-3.42s-2.42.54-2.82,2.16l-.41,1.63-1.91-.48.37-1.49c.7-2.8,2.45-4.34,5.28-3.64S299.13,653.7,298.43,656.51Z"/><path class="cls-3" d="M307.73,655.82l-6.28-1.38.4-1.85,8.36,1.83-.39,1.79-8.4,15.63-2.06-.45Z"/><path class="cls-3" d="M312,674l3.12-16.69-3.42-.64.35-1.88,8.92,1.67-.35,1.88-3.42-.64-3.12,16.69Z"/><path class="cls-3" d="M323.45,667.4l-1.27,8.41-2.08-.31,2.82-18.69,2.08.31-1.27,8.41,4.59.69,1.27-8.41,2.08.31-2.82,18.69-2.08-.31,1.27-8.41Z"/><path class="cls-3" d="M339.52,674.27l-1.16,3.7-1.93-.22,5.74-18.37,3,.35,1.45,19.19-2.09-.24-.29-3.87Zm.47-1.77,4.18.48-.88-11.08Z"/><path class="cls-3" d="M350.84,679.34l-1.88-.18,1.77-18.82,2.66.25,3.07,14,1.28-13.6,1.86.17L357.83,680l-2.18-.21-3.38-15.67Z"/><path class="cls-3" d="M362.69,680.37l-1.88-.13,1.29-18.85,2.67.18,3.43,13.93.93-13.63L371,662l-1.29,18.85-2.18-.15-3.78-15.57Z"/><path class="cls-3" d="M375.13,676.65c-.07,1.7.57,2.75,2.1,2.81s2.23-.94,2.29-2.64l.58-14.43,2,.08-.58,14.33c-.11,2.86-1.51,4.72-4.43,4.6s-4.13-2.08-4-4.94l.58-14.33,2.08.08Z"/><path class="cls-3" d="M386.7,677.66l-.77,3.8-1.94,0,3.82-18.86,3.05,0,3.41,18.93-2.11,0-.69-3.81Zm.29-1.81,4.21,0-2-10.93Z"/><path class="cls-3" d="M397,681.52l-.31-18.89,2.11,0,.28,17,5.4-.09,0,1.92Z"/><path class="cls-3" d="M260.92,692l-3.51-.94,6-22.31,3.51.94-2.56,9.56,4,1.07,2.56-9.56,3.57,1-6,22.31-3.57-1,2.56-9.56-4-1.07Z"/><path class="cls-3" d="M277.69,672.53l3.53.86-5.49,22.44L272.2,695Z"/><path class="cls-3" d="M287.56,685.36l5,1.1-1.59,7.15c-.8,3.61-3.07,5.27-6.54,4.49s-4.82-3.24-4-6.84L283,679.54c.8-3.61,3.07-5.27,6.54-4.49s4.82,3.24,4,6.85l-.49,2.19-3.35-.75.54-2.42c.36-1.61-.21-2.38-1.34-2.63s-2,.2-2.33,1.81l-2.71,12.18c-.36,1.61.22,2.35,1.35,2.6s2-.17,2.32-1.78l.92-4.16-1.61-.36Z"/><path class="cls-3" d="M296.83,700.46l-3.56-.69,4.37-22.69,3.57.69-1.87,9.72,4.05.78,1.87-9.72,3.63.7-4.37,22.69-3.63-.7,1.87-9.72-4.05-.78Z"/><path class="cls-3" d="M322.81,681.26c3.49.53,5,2.89,4.42,6.54l-.11.72-3.39-.51.14-.95c.25-1.63-.31-2.35-1.46-2.52s-1.89.35-2.13,2c-.71,4.7,6.18,6.64,5.19,13.17-.55,3.66-2.69,5.47-6.22,4.94s-5-2.89-4.49-6.55l.21-1.4,3.39.51-.25,1.63c-.25,1.63.38,2.33,1.53,2.5s1.95-.31,2.19-1.94c.71-4.7-6.18-6.64-5.19-13.17C317.21,682.55,319.32,680.73,322.81,681.26Z"/><path class="cls-3" d="M339.48,698.34l-.37,3c-.45,3.67-2.54,5.54-6.08,5.11s-5.12-2.75-4.67-6.42l1.46-11.92c.45-3.67,2.54-5.54,6.08-5.11s5.12,2.75,4.67,6.42l-.27,2.23-3.41-.42.3-2.46c.2-1.64-.45-2.35-1.59-2.49s-1.94.39-2.14,2l-1.51,12.38c-.2,1.64.45,2.32,1.6,2.46s1.94-.36,2.14-2l.4-3.28Z"/><path class="cls-3" d="M345.55,707.6l-3.62-.33,2.1-23,3.62.33-.9,9.86,4.11.38.9-9.86,3.68.34-2.1,23-3.68-.34.9-9.86-4.11-.38Z"/><path class="cls-3" d="M358,691.06c.22-3.69,2.29-5.68,5.85-5.47s5.37,2.44,5.15,6.13l-.72,12c-.22,3.69-2.29,5.68-5.85,5.47s-5.37-2.44-5.15-6.13Zm2.89,12.44c-.1,1.65.59,2.32,1.74,2.39s1.92-.51,2-2.16l.75-12.45c.1-1.65-.59-2.32-1.74-2.39s-1.92.51-2,2.16Z"/><path class="cls-3" d="M371.89,691.85c.11-3.7,2.12-5.75,5.68-5.64s5.45,2.27,5.34,6l-.36,12c-.11,3.7-2.12,5.75-5.68,5.64s-5.45-2.27-5.34-6Zm3.27,12.35c0,1.65.66,2.3,1.81,2.33s1.9-.57,1.95-2.22l.37-12.47c0-1.65-.66-2.3-1.81-2.33s-1.9.57-1.95,2.22Z"/><path class="cls-3" d="M386,686.66h3.63v19.8h6v3.3H386Z"/><path class="cls-3" d="M414.88,700.51l.13,3.07c.16,3.69-1.6,5.88-5.16,6s-5.5-1.88-5.66-5.57l-.52-12c-.16-3.69,1.6-5.88,5.16-6s5.5,1.88,5.66,5.57l.1,2.24-3.43.15-.11-2.47c-.07-1.65-.82-2.24-2-2.19s-1.85.71-1.78,2.36l.54,12.46c.07,1.65.82,2.21,2,2.16s1.85-.67,1.78-2.32l-.14-3.3Z"/><path class="cls-3" d="M417.19,691.41c-.28-3.69,1.5-5.94,5.06-6.21s5.66,1.69,5.93,5.38l.91,12c.28,3.69-1.5,5.94-5.06,6.21s-5.66-1.69-5.93-5.38Zm4.54,11.94c.12,1.65.9,2.22,2,2.13s1.83-.77,1.7-2.41l-.94-12.44c-.12-1.65-.9-2.22-2-2.13s-1.83.77-1.71,2.41Z"/><path class="cls-3" d="M434.58,690.76l1.83,16.63-3.25.36-2.53-23,4.53-.5,5.22,13.34-1.52-13.75,3.21-.35,2.53,23-3.71.41Z"/><path class="cls-3" d="M450.3,692.74l4.64-.67.47,3.27-4.64.67,1.36,9.44-3.59.52-3.29-22.87,9.51-1.37.47,3.27-5.91.85Z"/><path class="cls-3" d="M462.36,690.31l4.91-.86.57,3.25-4.91.86,1.17,6.66,6.18-1.09.57,3.25-9.75,1.72-4-22.75,9.75-1.72.57,3.25L461.25,684Z"/><path class="cls-3" d="M481.81,700.14a7.1,7.1,0,0,1-.91-2.71l-.75-3.55c-.44-2.1-1.32-2.72-2.93-2.38l-1.23.26,1.94,9.2-3.55.75-4.76-22.6L475,678c3.68-.78,5.62.6,6.36,4.09l.37,1.78c.49,2.32.07,4-1.36,5.07,1.93.37,2.87,2,3.37,4.31l.74,3.49a6.8,6.8,0,0,0,1,2.66Zm-8-18.56,1.46,6.94,1.39-.29c1.32-.28,2-1,1.63-2.84l-.47-2.23c-.34-1.61-1-2.21-2.3-1.94Z"/><path class="cls-3" d="M489,684.77l4.84-1.19.79,3.21L489.8,688l1.62,6.57,6.09-1.5.79,3.2-9.61,2.37-5.53-22.43,9.61-2.37.79,3.2-6.09,1.5Z"/><path class="cls-3" d="M500.35,678.34l4.58,16.09-3.14.89-6.32-22.22,4.38-1.25,7.37,12.28-3.79-13.3,3.11-.88,6.32,22.22-3.59,1Z"/><path class="cls-3" d="M524.05,679.57l.95,2.92c1.14,3.52,0,6.09-3.36,7.19s-5.8-.34-6.94-3.86L511,674.4c-1.14-3.52,0-6.09,3.36-7.19s5.8.34,6.94,3.86l.69,2.13-3.26,1.06L518,671.9c-.51-1.57-1.39-1.94-2.49-1.59s-1.6,1.18-1.09,2.75l3.84,11.86c.51,1.57,1.38,1.91,2.48,1.56s1.61-1.14,1.1-2.71l-1-3.14Z"/><path class="cls-3" d="M529,672.78l4.69-1.7,1.12,3.1-4.69,1.7,2.3,6.36,5.9-2.13,1.12,3.1-9.31,3.37-7.86-21.73,9.31-3.37,1.12,3.1-5.9,2.13Z"/><path class="cls-2" d="M605.32,154.45a39.49,39.49,0,0,1,11.17-9.36,35.71,35.71,0,0,1,14.37-4.7,32.11,32.11,0,0,1,7.85.22,34,34,0,0,1,7.6,2.24,39.72,39.72,0,0,1,12.56,9.06l-5.34.07c.49-.52.84-.85,1.27-1.24s.83-.73,1.25-1.08c.84-.7,1.71-1.35,2.6-2a37.6,37.6,0,0,1,5.67-3.29,28.62,28.62,0,0,1,12.93-2.85,23.75,23.75,0,0,1,12.39,4,29.91,29.91,0,0,1,8.55,8.93l-2.45-1.77c-.85-.53-1.63-1.13-2.49-1.61a35.19,35.19,0,0,0-5.17-2.55A22.82,22.82,0,0,0,677.4,147a26.6,26.6,0,0,0-10,3.39,38.57,38.57,0,0,0-4.52,3c-.71.56-1.42,1.13-2.09,1.74l-1,.91c-.3.29-.67.65-.86.86l-2.6,2.85L653.59,157a39.7,39.7,0,0,0-10.27-7.64,32.31,32.31,0,0,0-5.9-2.13,30.42,30.42,0,0,0-6.3-.79,39.51,39.51,0,0,0-13.06,2.15A64.71,64.71,0,0,0,605.32,154.45Z"/><path class="cls-2" d="M566,176.38a28.17,28.17,0,0,1,7.92-6.64,25.31,25.31,0,0,1,10.19-3.34,22.77,22.77,0,0,1,5.57.15,24.1,24.1,0,0,1,5.39,1.59,28.16,28.16,0,0,1,8.91,6.43l-3.82,0A20,20,0,0,1,602,173c.6-.5,1.22-1,1.84-1.41a26.66,26.66,0,0,1,4-2.33,20.3,20.3,0,0,1,9.17-2,16.75,16.75,0,0,1,8.79,2.85,21.13,21.13,0,0,1,6.06,6.33,30.06,30.06,0,0,0-7.17-4.2,16.29,16.29,0,0,0-7.55-1,18.86,18.86,0,0,0-7.09,2.4,27.37,27.37,0,0,0-3.2,2.13c-.51.4-1,.8-1.48,1.23s-1,.9-1.31,1.26l-1.87,2-1.95-2a28.15,28.15,0,0,0-7.27-5.41,22.91,22.91,0,0,0-4.18-1.51,21.56,21.56,0,0,0-4.46-.56,28,28,0,0,0-9.26,1.52A45.34,45.34,0,0,0,566,176.38Z"/><path class="cls-2" d="M543.4,86.76a19.26,19.26,0,0,1,5.34-4.35A18.69,18.69,0,0,1,552,81c.28-.09.57-.19.86-.27l.89-.18a10.1,10.1,0,0,1,1.8-.28,10.86,10.86,0,0,1,1.84-.06l1.85.17a14.85,14.85,0,0,1,3.55,1.09,16.85,16.85,0,0,1,3.2,1.84,29,29,0,0,1,2.74,2.38l-2.29,0a16.1,16.1,0,0,1,2.4-2,16.54,16.54,0,0,1,2.67-1.54,15.43,15.43,0,0,1,2.94-1,9.16,9.16,0,0,1,1.55-.25c.26,0,.52-.07.78-.08l.79,0a10.67,10.67,0,0,1,5.82,1.84,6.41,6.41,0,0,1,1.2.88c.37.33.74.66,1.09,1a26.38,26.38,0,0,1,1.82,2.26c-.81-.54-1.54-1.13-2.33-1.63a15.81,15.81,0,0,0-2.45-1.23,10.23,10.23,0,0,0-5.09-.77,12.76,12.76,0,0,0-4.82,1.57,18.62,18.62,0,0,0-4.06,3.12l-1.07,1.12-1.22-1.09-1.16-1a9.21,9.21,0,0,0-1.18-1,13.79,13.79,0,0,0-2.6-1.58,16.19,16.19,0,0,0-2.83-1.06l-1.5-.24a14.91,14.91,0,0,0-1.53-.09,18.71,18.71,0,0,0-6.23,1.07A30,30,0,0,0,543.4,86.76Z"/></g></svg>