<svg width="2000px" id="Layer_1" data-name="Layer 1" xmlns="http://www.w3.org/2000/svg" viewBox="0 0 2021.53 1012.22"><defs><style>.cls-1{fill:#c98b72;}.cls-2{fill:#9baaa7;}</style></defs><title>icon</title><g id="Layer_2" data-name="Layer 2"><g id="Layer_1-2" data-name="Layer 1-2"><path class="cls-1" d="M1611.64,189.87c61.93-.65,108.33,54.6,102.72,115.45a103.8,103.8,0,1,1-102.72-115.45Z" transform="translate(-4 -3)"/><path class="cls-1" d="M1620.92,3a34.1,34.1,0,0,1,21.36,41.22,215.16,215.16,0,0,1-10.57,25.25c-7.77,16.83-15.32,34.09-9.28,52.65a192.93,192.93,0,0,0,15.11,29.78c.22.65.43,1.51.65,2.16h-41.43c-7.77,0-9.28-5.39-10.36-10.79a75.25,75.25,0,0,1,7.77-54.16c7.77-13.81,16.83-27.19,25.89-40.14C1627,39,1633,30.62,1630,18.75A59.93,59.93,0,0,0,1620.92,3Z" transform="translate(-4 -3)"/><path class="cls-1" d="M1578.41,158.37c-8.42,3.88-14.24,6.91-20.5,9.06-1.51.65-4.32-1.51-5.83-2.81a35.14,35.14,0,0,1-9.93-36.47,52.55,52.55,0,0,0-7.77-35.39,30.45,30.45,0,0,1,15.75,7.34,35.1,35.1,0,0,1,10.79,22.44C1561.58,136.57,1562.23,149.52,1578.41,158.37Z" transform="translate(-4 -3)"/><path class="cls-1" d="M1671,169.37c-8.2-4.1-14.46-6.47-20.07-9.93-1.29-.86-1.73-4.1-1.51-6.47a35.27,35.27,0,0,1,21.79-31.51A51.3,51.3,0,0,0,1693.43,93a29.81,29.81,0,0,1,4.53,17,35.92,35.92,0,0,1-10.57,22.44C1677,142.4,1667.53,151.25,1671,169.37Z" transform="translate(-4 -3)"/><path class="cls-1" d="M1742.41,246c-4.1-8.2-7.34-14-9.49-20.28-.65-1.51,1.29-4.32,2.81-6a35.35,35.35,0,0,1,36.25-11,52.1,52.1,0,0,0,35.17-8.42,29.58,29.58,0,0,1-6.91,16.18,35.39,35.39,0,0,1-22.23,11C1763.56,228.5,1750.83,229.58,1742.41,246Z" transform="translate(-4 -3)"/><path class="cls-1" d="M1735.07,357.76c4.1-8.2,6.69-14.46,9.93-20.07.86-1.29,4.32-1.73,6.47-1.51A35.12,35.12,0,0,1,1782.55,358a52.92,52.92,0,0,0,28.27,22.44,29.81,29.81,0,0,1-17,4.53,36.19,36.19,0,0,1-22.44-10.79C1761.83,363.59,1753.2,354.31,1735.07,357.76Z" transform="translate(-4 -3)"/><path class="cls-1" d="M1644.66,427.68c8.63-3.45,14.67-6,20.93-7.77,1.51-.43,4.1,1.73,5.83,3.24a35.13,35.13,0,0,1,7.77,37.12,53.06,53.06,0,0,0,5.61,35.82,31.08,31.08,0,0,1-15.75-7.77,35,35,0,0,1-9.28-23.09C1660.41,450.12,1660.41,437.17,1644.66,427.68Z" transform="translate(-4 -3)"/><path class="cls-1" d="M1546.47,413.87c7.77,4.32,14,7.34,19.42,11,1.29.86,1.51,4.32,1.29,6.47a35.31,35.31,0,0,1-23.52,30,52.71,52.71,0,0,0-23.52,27.19,31.66,31.66,0,0,1-3.67-17.26,35.67,35.67,0,0,1,11.65-21.79C1539.14,440.41,1549.06,432.21,1546.47,413.87Z" transform="translate(-4 -3)"/><path class="cls-1" d="M1475,331.43c3.45,8.42,6.26,14.46,8.2,20.72.43,1.51-1.51,4.32-3,5.83a35,35,0,0,1-36.9,8.63,52.55,52.55,0,0,0-35.61,6.26,31.08,31.08,0,0,1,7.77-15.75,36,36,0,0,1,22.87-9.71C1452.6,347.62,1465.55,347.4,1475,331.43Z" transform="translate(-4 -3)"/><path class="cls-1" d="M1486.48,224c-3.67,8.42-6,14.46-9.28,20.28-.86,1.29-4.1,1.73-6.26,1.73A35.27,35.27,0,0,1,1439.44,225a52.38,52.38,0,0,0-29.13-21.58,27.56,27.56,0,0,1,16.83-5,35.71,35.71,0,0,1,22.66,9.93C1459.29,219,1468.36,228.07,1486.48,224Z" transform="translate(-4 -3)"/><path class="cls-1" d="M1808.87,87.81a33.8,33.8,0,0,1-11.65,44.88,204.52,204.52,0,0,1-25,11.87c-16.62,7.34-33.88,15.32-41.86,33.23a201.66,201.66,0,0,0-8.63,32.15,8.74,8.74,0,0,1-1.08,1.94c-10.36-9.28-20.5-18.56-30.86-27.41-5.83-5-3.45-10.14-.65-15.11a75.31,75.31,0,0,1,42.08-35.17c15.11-5.18,30.43-9.06,46-12.73,11.65-2.81,22-5.18,27.41-15.75A53.06,53.06,0,0,0,1808.87,87.81Z" transform="translate(-4 -3)"/><path class="cls-1" d="M1899.72,299.93a34.1,34.1,0,0,1-41.22,21.36,216.51,216.51,0,0,1-25.25-10.79c-16.83-7.77-34.09-15.32-52.65-9.28a192.92,192.92,0,0,0-29.78,15.11c-.65.22-1.51.43-2.16.65V275.54c0-7.77,5.39-9.28,10.79-10.36a75.25,75.25,0,0,1,54.16,7.77c13.81,7.77,27.19,16.83,40.14,25.89,9.93,6.91,18.34,12.95,30.21,9.93A66,66,0,0,0,1899.72,299.93Z" transform="translate(-4 -3)"/><path class="cls-1" d="M1808.44,500.18A34.06,34.06,0,0,1,1764,486.59a262,262,0,0,1-10.36-25.46c-6.69-17.26-13.59-34.74-31.51-43.59a198.62,198.62,0,0,0-31.51-10.14,8.75,8.75,0,0,1-1.94-1.08c9.71-9.93,19.42-19.64,28.92-29.56,5.39-5.61,10.36-2.81,15.11,0a75.55,75.55,0,0,1,33.23,43.59c4.32,15.32,7.77,30.86,10.57,46.61,2.16,11.87,4.1,22.23,14.46,28.27A55.78,55.78,0,0,0,1808.44,500.18Z" transform="translate(-4 -3)"/><path class="cls-1" d="M1598.26,579.16a34,34,0,0,1-20.93-41.43,262.57,262.57,0,0,1,11-25.25c7.77-16.83,15.75-33.88,9.71-52.65A191.81,191.81,0,0,0,1583.16,430a7.67,7.67,0,0,1-.43-2.16c13.81,0,27.62.43,41.43,0,7.77,0,9.28,5.61,10.36,11a76.36,76.36,0,0,1-8.2,54.16c-7.77,13.81-16.83,27-26.11,39.92-6.91,9.93-13.16,18.34-10.14,30.21A53.46,53.46,0,0,0,1598.26,579.16Z" transform="translate(-4 -3)"/><path class="cls-1" d="M1393.69,479a34.16,34.16,0,0,1,17.69-42.94,193,193,0,0,1,26.33-7.77c17.91-5,35.82-10.36,46.4-27a200.57,200.57,0,0,0,12.95-30.64,12,12,0,0,1,1.29-1.73c9.06,10.57,17.69,21.15,26.76,31.51,5.18,5.83,1.94,10.57-1.51,15.11A76,76,0,0,1,1477,444.51c-15.75,3-31.51,4.53-47.26,6-11.87,1.08-22.44,1.94-29.56,11.87A64.84,64.84,0,0,0,1393.69,479Z" transform="translate(-4 -3)"/><path class="cls-1" d="M1321.83,274a34.18,34.18,0,0,1,42.51-19.42,216.32,216.32,0,0,1,24.6,12.08c16.4,8.63,33.23,17,52.22,12.08a192.34,192.34,0,0,0,30.43-13.59,7.67,7.67,0,0,1,2.16-.43c-.65,13.81-1.73,27.62-1.94,41.22,0,7.77-5.83,9.06-11.44,9.93a76,76,0,0,1-53.73-10.79c-13.38-8.42-26.11-18.13-38.84-27.84-9.49-7.34-17.69-13.81-29.56-11.44A55.68,55.68,0,0,0,1321.83,274Z" transform="translate(-4 -3)"/><path class="cls-1" d="M1429.08,68.38a34,34,0,0,1,42.29,19.21,266.4,266.4,0,0,1,7.12,26.54c4.32,17.91,9.06,36.25,25.25,47.26a225.43,225.43,0,0,0,30.21,14,5.82,5.82,0,0,1,1.73,1.51c-11,8.63-21.79,16.83-32.37,25.68-6,5-10.79,1.51-14.89-1.94A76.56,76.56,0,0,1,1461,153.41c-2.37-15.75-3.67-31.51-4.53-47.26-.65-11.87-1.08-22.44-11-29.78A50.41,50.41,0,0,0,1429.08,68.38Z" transform="translate(-4 -3)"/><path class="cls-2" d="M159.37,533a127.38,127.38,0,0,1-7.77-33.66,187.3,187.3,0,0,1-.65-34.74,203.08,203.08,0,0,1,17.91-68.41,250.56,250.56,0,0,1,38.63-59.34,378.66,378.66,0,0,1,51.79-48.34,385.42,385.42,0,0,1,60-38,456.8,456.8,0,0,1,65.6-27.19,665.54,665.54,0,0,1,139.4-26.54,550.08,550.08,0,0,1,68-1.73c11.22.65,28.92,1.73,40.57,2.59s23.52,1.94,35.17,3.45a756.75,756.75,0,0,1,134.87,30,747,747,0,0,1,131,58c20.93,11.44,41.22,23.74,60.85,37.12,9.93,6.47,19.42,13.59,28.92,20.5l27.62,20.72c36.47,28.05,72.51,56.75,107.9,85.45s70.78,56.75,107.25,81.57A848.25,848.25,0,0,0,1382,600.09c20.07,9.28,40.57,17.91,61.5,25.68a647.52,647.52,0,0,0,63,20.07A555,555,0,0,0,1571.29,659a441.8,441.8,0,0,0,65.38,4.32,272.34,272.34,0,0,0,32.58-1.94c5.39-.65,10.79-1.29,16.18-2.16l16.62-2.81c11.22-1.73,22.23-4.1,33.23-6s22.23-4.53,33.23-6.91a1140,1140,0,0,0,257-88.91c-19,12.73-38.84,24.38-58.91,35.61-20.07,11-40.78,21.15-61.93,30.64s-42.29,18.34-64.09,26.11S1797,662.67,1775,669.15c-22.23,6.47-44.45,12.73-66.9,18.13l-16.83,3.88c-5.61,1.29-11.65,2.37-17.48,3.45-11.87,1.94-23.74,3.45-35.61,4.32a503.54,503.54,0,0,1-141.56-11.65,738.54,738.54,0,0,1-134.22-43.59,823.87,823.87,0,0,1-123.86-66.46c-39.27-25.46-76.17-54.38-112.21-82.65s-71.64-56.54-107.9-84.16l-27-20.5c-27.19-18.56-63.87-42.94-82.86-53.73a851.33,851.33,0,0,0-120.41-56.75A706.23,706.23,0,0,0,658.49,246.2c-11-1.73-21.58-3.45-32.8-4.53a525.17,525.17,0,0,0-93.87-4.1,568.81,568.81,0,0,0-137.24,20.28,407.48,407.48,0,0,0-120.2,52.87,327.79,327.79,0,0,0-51.79,41,181.92,181.92,0,0,0-52.87,103.15A194,194,0,0,0,168,507.3,199.28,199.28,0,0,0,159.37,533Z" transform="translate(-4 -3)"/><path class="cls-2" d="M4,658.36a241.59,241.59,0,0,1,70.35-7.12,367.29,367.29,0,0,1,55.46,9.28,546.59,546.59,0,0,1,55,15.11l29.78,9.06,14.67,3.88c5,1.29,9.71,2.37,14.67,3.45a443,443,0,0,0,58.26,9.49A232.35,232.35,0,0,0,358.33,700c4.32-.86,8.63-1.73,12.73-2.81a109,109,0,0,0,11.87-3.88c1.94-.65,3.45-1.73,5.39-2.37l2.59-1.29,2.37-1.51,2.37-1.51,1.29-.86,1.51-1.08,6.47-4.32a172.56,172.56,0,0,0,20.93-16.62,81,81,0,0,0,14.46-18.56,89.37,89.37,0,0,0,11-46.4,162.7,162.7,0,0,0-2.37-27c-.65-4.53-1.51-8.85-2.59-13.38-.65-2.16-.86-4.32-1.51-6.47l-1.94-6.26a106.35,106.35,0,0,0-26.11-42.94A126.84,126.84,0,0,0,371.92,476a240.3,240.3,0,0,0-56.32-11.87c-5,0-10.14-1.08-14.67-1.08H286.69a139.63,139.63,0,0,0-28.27,4.1,181.56,181.56,0,0,0-98.83,65.17c0-7.77,1.73-24.6,1.73-24.6a213.66,213.66,0,0,1,88.91-65.82A174.18,174.18,0,0,1,283,432l8.42-1.51c2.81-.43,5.83-.65,8.63-.86h32.8c5.61,0,11.22.65,16.83,1.08s11.22,1.29,16.83,1.94a116.53,116.53,0,0,1,16.83,3.45,151.66,151.66,0,0,1,16.83,5.18l8.42,3c2.81,1.08,5.61,2.59,7.77,3.67a155.25,155.25,0,0,1,31.07,19.85,149.34,149.34,0,0,1,42.3,60.64l3.24,8.42c1.08,2.81,1.73,5.83,2.59,8.63a154.52,154.52,0,0,1,4.1,17.26,216.88,216.88,0,0,1,4.1,35.39,133.4,133.4,0,0,1-.65,18.56A64.2,64.2,0,0,1,502,626l-1.73,9.49a18.85,18.85,0,0,1-1.08,4.75L497.73,645c-1.08,3.24-1.73,6.26-3,9.28l-3.24,8.42c-1.29,3-3,5.83-4.53,8.63a137.6,137.6,0,0,1-24.17,30.64,196.85,196.85,0,0,1-28.05,22l-6.91,4.32-1.73,1.08-2.16,1.29-4.32,2.59-4.32,2.37-4.53,1.94c-3,1.29-6,2.59-9.06,3.67a172.26,172.26,0,0,1-35.82,8.2A262.86,262.86,0,0,1,297,747.48,386,386,0,0,1,233,731.73c-10.36-3.24-20.5-7.34-30.43-11.22L187.64,714c-5-2.16-9.28-4.1-14-6.26-18.56-8.2-37.76-15.75-57.18-22.87C80.17,671.74,42.41,662.46,4,658.36Z" transform="translate(-4 -3)"/><path class="cls-2" d="M388.75,860.12l75.53-66c46.4-40.57,97.54-103.8,80.92-234.13C537.43,500.83,515,455.3,474.42,429.83A273.07,273.07,0,0,0,278.7,394.23a195.74,195.74,0,0,0-52,21.36,312.25,312.25,0,0,1,54.6-59.77c47.26-36.47,81.35-51.79,160.55-67.54,108.76-21.36,275.13-21.36,451.43,101,58.48,40.78,106.82,78.55,149.33,112,38.41,30.21,71.43,56.11,100.56,74.88L1179,599.23l-39.92,14.89C904.93,701.73,488.88,829,484.78,830.34Zm-20.5-506.46c42.3,2.81,89.55,13.38,130.12,41,50.5,34.53,80.49,88,89.55,160.33,12.52,98.83-10.36,165.51-41.65,212.34,121.27-38,366.2-115.45,539.26-178.24-21.36-15.75-44.24-33.66-69.27-53.3-42.3-33-90-70.78-147.39-110.7-130.77-91.28-271-123.22-416.48-94.73A565.11,565.11,0,0,0,368.25,353.66Z" transform="translate(-4 -3)"/><path class="cls-2" d="M991.67,650.37c-69.48-63.87-175.22-148-254.2-192.49C620.73,392.29,455.87,408,454.36,408.26l-2.81-28.48c7.12-.65,175.44-17,300.16,53.08,80.92,45.53,188.82,131.42,259.38,196.59Z" transform="translate(-4 -3)"/><path class="cls-2" d="M898,678.64c-92.14-78.55-136.16-110.05-204.35-147.17-84.16-45.53-150.84-44.67-151.49-44.67l-.65-28.7c3,0,74.88-1.08,165.94,48.12,70.35,38,115.23,70.78,209.32,150.84Z" transform="translate(-4 -3)"/><path class="cls-2" d="M809.12,711.23a782.45,782.45,0,0,0-122.57-88.47A403.15,403.15,0,0,0,569.16,578.3l5-28.05A416.81,416.81,0,0,1,701,598.37a805.87,805.87,0,0,1,127.1,91.71Z" transform="translate(-4 -3)"/><path class="cls-2" d="M693.24,747.48c-34.53-32.37-126.88-76.17-127.75-76.17L578,645.19c3.88,1.94,97.32,46,135.09,81.35Z" transform="translate(-4 -3)"/><path class="cls-2" d="M642.52,823s408.92-117.17,564.72-193.56c0,0,225.29,138.75,422.73,123.22s345.27-125.37,383.68-152.56c0,0-120.2,179.32-427.91,266.07C1362.19,929.17,911.83,891,642.52,823Z" transform="translate(-4 -3)"/><path class="cls-2" d="M774.59,927.88A48.67,48.67,0,0,1,731.43,971c-23.52,1.51-43.16-13.59-43.16-43.16a48.67,48.67,0,0,1,43.16-43.16C755.38,883,774.59,898.32,774.59,927.88Z" transform="translate(-4 -3)"/><path class="cls-2" d="M896.94,991.54c-20.07,5.18-39.27-14-43.37-29.56C849.68,942.12,862.63,919,882.7,919c20.07-5.18,39.27,14,43.37,29.56C930,968.66,916.8,991.75,896.94,991.54Z" transform="translate(-4 -3)"/><path class="cls-2" d="M1071.3,975.14a37.63,37.63,0,0,1-33.23,33.23c-18.34,1.08-33.23-10.36-33.23-33.23a37.63,37.63,0,0,1,33.23-33.23C1056.2,940.83,1071.3,952.26,1071.3,975.14Z" transform="translate(-4 -3)"/><path class="cls-2" d="M1210.49,983.55a29.34,29.34,0,0,1-26.54,31.51,19.11,19.11,0,0,1-5,0,34.24,34.24,0,0,1-31.51-31.51A29.34,29.34,0,0,1,1174,952a19.11,19.11,0,0,1,5,0A34.42,34.42,0,0,1,1210.49,983.55Z" transform="translate(-4 -3)"/><path class="cls-2" d="M1340,980.1a31,31,0,0,1-27.19,27.19,24.55,24.55,0,0,1-27.19-21.79,22.54,22.54,0,0,1,0-5.39,31,31,0,0,1,27.19-27.19A24.55,24.55,0,0,1,1340,974.71,22.55,22.55,0,0,1,1340,980.1Z" transform="translate(-4 -3)"/><path class="cls-2" d="M1589,940.83a22.16,22.16,0,0,1-19.64,24.6,19.11,19.11,0,0,1-5,0,27.77,27.77,0,0,1-24.6-24.6,22.16,22.16,0,0,1,19.64-24.6,19.11,19.11,0,0,1,5,0A28,28,0,0,1,1589,940.83Z" transform="translate(-4 -3)"/><path class="cls-2" d="M1685.23,911a22.55,22.55,0,0,1-20.28,20.28,18.43,18.43,0,0,1-20.28-16.4,11.74,11.74,0,0,1,0-3.88,22.55,22.55,0,0,1,20.28-20.28,18.43,18.43,0,0,1,20.28,16.4A11.73,11.73,0,0,1,1685.23,911Z" transform="translate(-4 -3)"/><path class="cls-2" d="M1759.67,871.13A13.53,13.53,0,0,1,1747.81,886a7.13,7.13,0,0,1-3,0,17,17,0,0,1-14.89-14.89,13.53,13.53,0,0,1,11.87-14.89,7.13,7.13,0,0,1,3,0A17,17,0,0,1,1759.67,871.13Z" transform="translate(-4 -3)"/><path class="cls-2" d="M361.35,823a31,31,0,0,1-27.19,27.19A24.55,24.55,0,0,1,307,828.4a22.54,22.54,0,0,1,0-5.39,30.55,30.55,0,0,1,27.19-27.19,24.55,24.55,0,0,1,27.19,21.79A22.54,22.54,0,0,1,361.35,823Z" transform="translate(-4 -3)"/><path class="cls-2" d="M234.46,795.6a22.16,22.16,0,0,1-19.64,24.6,19.11,19.11,0,0,1-5,0,28,28,0,0,1-25-24.6A22.16,22.16,0,0,1,204.47,771a19.11,19.11,0,0,1,5,0A27.8,27.8,0,0,1,234.46,795.6Z" transform="translate(-4 -3)"/><path class="cls-2" d="M125.71,754.17a22.55,22.55,0,0,1-20.28,20.28,18.43,18.43,0,0,1-20.28-16.4,11.73,11.73,0,0,1,0-3.88,23.14,23.14,0,0,1,20.28-20.07,18.43,18.43,0,0,1,20.28,16.4Z" transform="translate(-4 -3)"/><path class="cls-2" d="M642.52,860.12S350.78,954,95.5,831.21c0,0,35.39,63,117.39,142.85C213.1,974.06,499.46,954,642.52,860.12Z" transform="translate(-4 -3)"/><path class="cls-2" d="M1470.51,966.07a31,31,0,0,1-27.19,27.19,24.55,24.55,0,0,1-27.19-21.79,22.54,22.54,0,0,1,0-5.39,31,31,0,0,1,27.19-27.19,24.55,24.55,0,0,1,27.19,21.79A22.53,22.53,0,0,1,1470.51,966.07Z" transform="translate(-4 -3)"/><path class="cls-2" d="M1827.22,824.52a13.53,13.53,0,0,1-11.87,14.89,7.13,7.13,0,0,1-3,0,17,17,0,0,1-14.89-14.89,13.53,13.53,0,0,1,11.87-14.89,7.13,7.13,0,0,1,3,0A16.76,16.76,0,0,1,1827.22,824.52Z" transform="translate(-4 -3)"/></g></g></svg>