<svg width="410" height="220" viewBox="0 0 410 220" fill="none" xmlns="http://www.w3.org/2000/svg">
<path fill-rule="evenodd" clip-rule="evenodd" d="M0.485107 55.013C0.485107 70.3287 10.8976 85.3414 24.3677 94.7898C35.8544 102.861 41.9421 99.693 43.5674 92.2004L34.0088 83.303C33.2375 86.4984 29.932 88.8949 23.6239 84.2947C16.4011 78.1827 12.0167 69.3641 11.5036 59.9163L43.5674 83.2204L43.0991 78.1519C41.8044 59.751 34.2568 41.5154 22.8802 35.2624C11.5036 29.0094 0.485107 39.6974 0.485107 55.013ZM23.2658 45.0689C29.8218 50.7434 33.1825 61.6517 33.5406 67.5741L11.7791 50.3026C12.8809 44.1598 16.7098 39.3943 23.2658 45.0689Z" fill="white"/>
<path d="M55.9907 56.2251L57.4782 61.872C57.8058 60.3112 58.8135 58.9783 60.2258 58.2375C61.6382 57.4967 63.3076 57.4254 64.7779 58.0431C68.8944 59.9378 71.9325 63.5936 73.0418 67.9873C73.2927 66.1861 74.2805 64.5702 75.7691 63.5255C77.2577 62.4809 79.1133 62.1015 80.8925 62.4781C87.1454 63.6074 91.9109 69.3922 94.8308 83.1102L107.502 121.84L96.8968 121.344L85.8783 83.5234C84.7214 78.0141 82.9033 75.9206 80.6996 75.4799C78.4959 75.0391 76.7605 77.1051 78.1103 84.2396L87.5586 120.187L76.8432 118.039L68.3038 79.4741C67.4499 73.7995 65.7696 71.4857 63.2353 70.5766C60.7011 69.6676 59.3238 71.5132 60.2328 78.8405L67.1744 115.422L56.5416 111.648C56.5416 111.648 54.3379 97.627 52.5199 82.9724C50.7018 68.3178 49.4347 53.0573 49.4347 53.0573L55.9907 56.2251Z" fill="white"/>
<path fill-rule="evenodd" clip-rule="evenodd" d="M113.672 38.0721C110.422 38.568 108.218 43.2233 108.907 48.2918C109.596 53.498 112.984 57.3269 116.317 56.7209C119.65 56.1149 121.633 51.3218 120.89 46.336C120.146 41.3501 116.923 37.5763 113.672 38.0721ZM158.655 110.656L152.76 100.63L139.318 105.836L123.562 63.1667L104.279 65.9213L107.227 78.3722L117.088 77.2153L128.933 108.508L114.306 110.519L118.934 121.344L158.655 110.656Z" fill="white"/>
<path d="M200.994 66.8579C202.923 74.6413 200.187 82.839 193.97 87.9032C185.871 94.8724 176.312 93.7981 170.418 83.7988L155.047 38.9261L144.469 43.8017L142.734 31.7641L163.751 22.6187C165.065 31.9713 166.989 41.2281 169.509 50.3302C172.149 59.2178 175.37 67.9227 179.15 76.3889C181.436 80.5484 184.659 81.0993 187.827 78.4549C190.462 76.4801 191.566 73.0581 190.581 69.9155L200.994 66.8579Z" fill="white"/>
<path d="M249.916 7.57846L262.174 45.6749C268.152 56.9137 263.744 67.1334 249.503 73.4139C237.686 78.6477 227.466 77.05 220.331 71.8713L229.339 63.8554C232.92 66.9956 237.603 67.6292 243.635 64.8746C250.825 61.5966 253.111 56.3903 249.365 49.7792L247.079 45.5371C244.717 51.0446 240.299 55.413 234.766 57.7126C224.133 63.2218 214.381 62.3128 208.294 50.5505L200.553 25.759L212.729 20.0844L219.202 42.4244C222.48 49.6415 227.466 49.8343 233.691 47.0522C240.357 44.0772 243.911 38.7883 241.267 32.1221L235.978 11.4625L249.916 7.57846Z" fill="white"/>
<path d="M311.757 18.9551C310.628 12.096 305.091 9.72708 297.984 9.72708C290.216 9.72708 284.652 13.4458 286.084 20.112L293.329 42.149L279.556 43.6915L268.096 4.21783L280.492 2.84052L283.247 7.33056C286.69 3.85973 292.475 1.13266 302.171 1.46321C316.881 2.04168 325.696 7.96412 326.742 19.1754L331.866 43.967L317.569 42.2591L311.757 18.9551Z" stroke="white" stroke-width="2"/>
<path d="M342.664 25.6488L341.671 25.7658L341.671 25.7688L342.664 25.6488ZM372.414 15.5669L372.078 16.5086L372.079 16.5091L372.414 15.5669ZM374.094 56.1975L373.728 57.128L373.731 57.1291L374.094 56.1975ZM391.393 57.685L392.392 57.6281L392.283 55.7204L390.777 56.8971L391.393 57.685ZM391.696 63.0014L390.698 63.0583L390.699 63.0709L391.696 63.0014ZM377.207 67.1885L377.62 66.2776L377.595 66.2663L377.569 66.2565L377.207 67.1885ZM362.277 53.801L363.164 53.3395L362.926 52.8822L362.416 52.8107L362.277 53.801ZM349.496 52.0105L349.634 51.0202L347.689 50.7477L348.613 52.481L349.496 52.0105ZM378.447 77.4081L378.881 76.5074L378.88 76.507L378.447 77.4081ZM405.414 70.8521L404.415 70.8236L404.414 70.853L404.415 70.8825L405.414 70.8521ZM406.571 30.3316L407.571 30.3602L407.591 29.6456L406.922 29.395L406.571 30.3316ZM394.864 25.9518L395.215 25.0152L394.627 24.7952L394.173 25.2292L394.864 25.9518ZM391.696 28.9819L390.856 29.5239L391.512 30.5417L392.388 29.7045L391.696 28.9819ZM391.145 42.9754L392.145 42.9831V42.9754H391.145ZM374.287 24.2164L373.922 25.1475L374.287 24.2164ZM375.251 47.548L374.866 48.471L375.251 47.548ZM357.759 29.5053L356.764 29.6044L357.759 29.5053ZM343.657 25.5318C343.344 22.8699 343.871 20.6485 345.039 18.8851C346.212 17.1152 348.086 15.7261 350.6 14.8361C355.655 13.0473 363.177 13.3288 372.078 16.5086L372.75 14.6252C363.608 11.3591 355.581 10.952 349.933 12.9507C347.097 13.9546 344.832 15.5784 343.372 17.7802C341.909 19.9887 341.31 22.698 341.671 25.7658L343.657 25.5318ZM374.461 55.267C366.277 52.0453 358.885 47.3808 353.379 42.1117C347.857 36.8273 344.321 31.0217 343.657 25.5288L341.671 25.7688C342.412 31.9004 346.3 38.1049 351.996 43.5566C357.709 49.0237 365.329 53.8214 373.728 57.128L374.461 55.267ZM390.777 56.8971C389.858 57.6155 388.085 58.127 385.29 57.9675C382.529 57.8099 378.909 57.0031 374.458 55.266L373.731 57.1291C378.314 58.9179 382.146 59.7913 385.176 59.9643C388.173 60.1354 390.532 59.6277 392.009 58.4729L390.777 56.8971ZM392.695 62.9445L392.392 57.6281L390.395 57.7419L390.698 63.0583L392.695 62.9445ZM376.794 68.0994C379.251 69.2124 381.468 69.9969 383.412 70.417C385.347 70.835 387.079 70.907 388.529 70.5243C390.017 70.1317 391.176 69.2656 391.896 67.9138C392.595 66.5997 392.832 64.9146 392.694 62.932L390.699 63.0709C390.822 64.8484 390.588 66.1141 390.13 66.9744C389.692 67.7971 389.01 68.3289 388.019 68.5905C386.99 68.8621 385.605 68.8446 383.835 68.4621C382.074 68.0816 379.997 67.3545 377.62 66.2776L376.794 68.0994ZM361.39 54.2625C364.689 60.6042 370.182 65.5296 376.845 68.1205L377.569 66.2565C371.359 63.8415 366.239 59.2505 363.164 53.3395L361.39 54.2625ZM349.357 53.0008L362.138 54.7913L362.416 52.8107L349.634 51.0202L349.357 53.0008ZM378.88 76.507C364.485 69.5823 355.134 60.4605 350.378 51.5401L348.613 52.481C353.609 61.8512 363.319 71.2405 378.013 78.3093L378.88 76.507ZM404.415 70.8825C404.508 73.9456 404.001 76.2729 403.017 77.9374C402.05 79.5717 400.577 80.6493 398.538 81.1548C394.349 82.1934 387.793 80.8055 378.881 76.5074L378.012 78.3088C386.978 82.6326 394.098 84.3162 399.02 83.096C401.536 82.4721 403.477 81.0877 404.738 78.9552C405.981 76.8527 406.514 74.108 406.414 70.8218L404.415 70.8825ZM405.572 30.3031L404.415 70.8236L406.414 70.8807L407.571 30.3602L405.572 30.3031ZM394.514 26.8884L406.221 31.2682L406.922 29.395L395.215 25.0152L394.514 26.8884ZM392.388 29.7045L395.555 26.6744L394.173 25.2292L391.005 28.2592L392.388 29.7045ZM372.079 16.5091C382.589 20.2474 388.54 25.9336 390.856 29.5239L392.537 28.4399C389.949 24.4274 383.614 18.4891 372.749 14.6247L372.079 16.5091ZM392.145 42.9754C392.145 39.0726 390.261 35.1261 387.179 31.698C384.089 28.2613 379.74 25.278 374.652 23.2853L373.922 25.1475C378.751 27.0388 382.831 29.8539 385.691 33.0352C388.559 36.2251 390.145 39.716 390.145 42.9754H392.145ZM374.866 48.471C379.658 50.4686 383.872 51.1968 386.981 50.3592C388.565 49.9323 389.876 49.0927 390.784 47.8073C391.685 46.5313 392.13 44.9 392.145 42.9831L390.145 42.9676C390.133 44.5904 389.758 45.7929 389.151 46.6535C388.549 47.5046 387.662 48.1043 386.461 48.4281C383.998 49.0917 380.293 48.5666 375.636 46.625L374.866 48.471ZM356.764 29.6044C357.153 33.5017 359.318 37.2296 362.522 40.4507C365.732 43.6785 370.042 46.4597 374.866 48.471L375.636 46.625C371.012 44.6972 366.935 42.0518 363.94 39.0404C360.938 36.0223 359.082 32.6984 358.754 29.4061L356.764 29.6044ZM374.652 23.2853C369.602 21.3073 365.038 20.7477 361.744 21.7517C360.075 22.2606 358.701 23.1835 357.808 24.5533C356.915 25.9213 356.568 27.634 356.764 29.6044L358.754 29.4061C358.593 27.7817 358.893 26.5504 359.483 25.6459C360.072 24.7431 361.015 24.0649 362.328 23.6648C364.998 22.8507 369.056 23.2414 373.922 25.1475L374.652 23.2853Z" fill="white"/>
<path d="M15.1122 155.722C14.7541 162.774 19.6022 167.897 26.5438 171.533C34.064 175.528 40.3169 174.977 39.9864 168.09L38.0031 144.29L51.7762 150.461L55.5224 191.78L42.741 186.849L40.7301 181.34C36.6808 182.69 30.538 182.332 21.9987 179.302C8.91427 175.004 2.35828 168.421 2.35828 153.931V123.989L15.002 130.93L15.1122 155.722Z" stroke="white" stroke-width="2"/>
<path d="M121.826 163.27L133.671 202.055C134.828 212.853 123.617 220.015 103.37 217.921C86.8424 216.186 78.0001 209.244 74.9149 201.889L89.597 203.239C91.1396 207.178 95.4919 210.071 103.673 210.925C113.425 211.916 118.989 208.748 118.328 202.33L117.694 197.978C113.838 201.008 108.687 202.826 98.9352 201.504C84.7765 199.576 74.9976 192.551 73.7855 180.954L69.3506 156.631L83.3165 160.047L88.6329 182.552C89.845 189.797 95.244 192.799 102.874 193.57C111.138 194.397 116.482 191.257 114.857 184.535L108.108 163.159L121.826 163.27Z" stroke="white" stroke-width="2"/>
<path d="M179.783 196.215L180.059 197.176L180.059 197.176L179.783 196.215ZM143.973 182.277L144.918 181.948L143.973 182.277ZM200.939 175.803L201.934 175.903L202.067 174.575L200.755 174.82L200.939 175.803ZM189.452 177.952L189.268 176.969L188.558 177.102L188.461 177.817L189.452 177.952ZM177.993 188.64L178.286 189.596L178.286 189.596L177.993 188.64ZM158.903 182.91L158.568 181.968L157.54 182.334L157.994 183.326L158.903 182.91ZM199.396 168.476L199.732 169.418L200.768 169.048L200.302 168.052L199.396 168.476ZM197.799 165.06L198.704 164.636L198.689 164.604L198.672 164.573L197.799 165.06ZM162.209 154.262L161.904 153.31L162.209 154.262ZM185.293 166.74L185.602 167.691L186.784 167.306L186.155 166.235L185.293 166.74ZM166.837 162.416L167.148 163.366L166.837 162.416ZM156.286 176.189L155.302 176.362L155.501 177.496L156.596 177.14L156.286 176.189ZM179.508 195.254C163.309 199.897 148.957 193.571 144.918 181.948L143.029 182.605C147.529 195.553 163.203 202.008 180.059 197.176L179.508 195.254ZM199.944 175.703C199.196 183.157 193.242 191.314 179.508 195.254L180.059 197.176C194.367 193.072 201.084 184.371 201.934 175.903L199.944 175.703ZM189.636 178.935L201.123 176.786L200.755 174.82L189.268 176.969L189.636 178.935ZM178.286 189.596C186.496 187.078 189.941 181.79 190.443 178.086L188.461 177.817C188.082 180.615 185.302 185.353 177.7 187.684L178.286 189.596ZM157.994 183.326C160.641 189.111 169.086 192.415 178.286 189.596L177.7 187.684C169.105 190.318 161.904 187.066 159.813 182.494L157.994 183.326ZM199.061 167.534L158.568 181.968L159.239 183.852L199.732 169.418L199.061 167.534ZM196.893 165.484L198.49 168.9L200.302 168.052L198.704 164.636L196.893 165.484ZM162.514 155.214C176.851 150.624 190.648 154.28 196.925 165.547L198.672 164.573C191.782 152.206 176.821 148.534 161.904 153.31L162.514 155.214ZM144.918 181.948C142.887 176.103 143.745 170.597 146.836 165.974C149.945 161.325 155.357 157.506 162.514 155.214L161.904 153.31C154.433 155.701 148.594 159.747 145.174 164.862C141.736 170.004 140.79 176.164 143.029 182.605L144.918 181.948ZM186.155 166.235C183.718 162.078 175.959 158.378 166.526 161.465L167.148 163.366C175.895 160.504 182.571 164.076 184.43 167.246L186.155 166.235ZM156.596 177.14L185.602 167.691L184.983 165.79L155.977 175.238L156.596 177.14ZM166.526 161.465C161.839 162.999 158.75 165.221 156.972 167.866C155.185 170.523 154.797 173.495 155.302 176.362L157.271 176.015C156.84 173.566 157.181 171.139 158.631 168.982C160.09 166.813 162.744 164.807 167.148 163.366L166.526 161.465Z" fill="white"/>
<path d="M236.914 135.365C232.259 127.79 227.604 128.121 223.141 131.784C217.893 136.04 216.78 143.606 220.579 149.194L230.276 173.186L218.926 179.467L198.818 139.029L207.274 132.969L212.15 136.44C212.333 130.402 215.005 124.709 219.532 120.711C227.796 113.08 236.721 114.237 245.206 126.964L258.29 156.245L248.401 162.195L236.914 135.365Z" stroke="white" stroke-width="2"/>
<path d="M282.2 126.137C285.561 124.87 289.775 127.625 291.428 132.253C293.081 136.88 291.428 141.425 288.178 142.582C284.927 143.739 281.016 141.04 279.39 136.632C277.765 132.225 278.702 127.432 282.2 126.137Z" stroke="white" stroke-width="2"/>
<path d="M338.863 139.442C326.219 137.569 313.603 124.319 307.46 108.453C301.317 92.586 306.661 80.6861 322.087 81.5951C333.519 82.2562 343.904 90.4099 349.633 101.015L340.047 102.53C337.318 97.0759 332.111 93.2859 326.081 92.3657C318.148 91.7321 315.063 98.0402 318.534 107.792C322.004 117.543 328.974 124.953 336.053 125.889C340.763 126.523 343.656 123.879 343.959 118.479L354.647 125.421C353.545 135.31 347.898 140.764 338.863 139.442Z" stroke="white" stroke-width="2"/>
<path d="M387.041 159.909L387.612 159.088L387.609 159.086L387.041 159.909ZM361.533 116.303L362.517 116.127L361.533 116.303ZM382.165 99.5277L382.634 98.6441L382.165 99.5277ZM386.821 145.75L386.272 146.586L386.272 146.587L386.821 145.75ZM397.839 135.944L398.838 135.898L397.839 135.944ZM372.717 120.793L373.708 120.66L372.717 120.793ZM383.735 110.739L384.221 109.865L383.735 110.739ZM387.609 159.086C381.777 155.064 376.241 148.487 371.785 140.797C367.332 133.114 363.996 124.388 362.517 116.127L360.549 116.48C362.073 124.994 365.499 133.939 370.054 141.799C374.605 149.652 380.322 156.49 386.473 160.732L387.609 159.086ZM407.169 144.511C407.169 152.876 404.873 158.375 401.459 160.852C398.142 163.259 393.352 163.079 387.612 159.088L386.47 160.73C392.575 164.975 398.348 165.58 402.634 162.471C406.823 159.432 409.169 153.114 409.169 144.511H407.169ZM381.697 100.411C389.052 104.31 395.428 111.156 399.968 119.156C404.508 127.154 407.169 136.227 407.169 144.511H409.169C409.169 135.826 406.389 126.416 401.708 118.168C397.027 109.923 390.402 102.762 382.634 98.6441L381.697 100.411ZM362.517 116.127C361.036 107.848 362.474 102.125 365.7 99.3804C368.87 96.6841 374.264 96.4715 381.697 100.411L382.634 98.6441C374.943 94.5679 368.521 94.3553 364.404 97.857C360.345 101.31 359.028 107.983 360.549 116.48L362.517 116.127ZM386.272 146.587C389.77 148.88 393.178 149.22 395.648 147.089C397.991 145.068 399.076 141.122 398.838 135.898L396.84 135.989C397.07 141.04 395.966 144.174 394.342 145.575C392.845 146.866 390.51 146.973 387.369 144.914L386.272 146.587ZM371.726 120.926C372.419 126.092 374.29 131.337 376.853 135.862C379.412 140.378 382.699 144.243 386.272 146.586L387.369 144.914C384.139 142.795 381.048 139.209 378.593 134.876C376.143 130.551 374.364 125.549 373.708 120.66L371.726 120.926ZM384.221 109.865C380.256 107.66 376.629 107.448 374.187 109.664C371.839 111.794 371.039 115.808 371.726 120.926L373.708 120.66C373.045 115.724 373.939 112.59 375.531 111.146C377.027 109.788 379.585 109.576 383.249 111.613L384.221 109.865ZM398.838 135.898C398.596 130.59 396.927 125.199 394.345 120.59C391.767 115.988 388.239 112.099 384.221 109.865L383.249 111.613C386.862 113.621 390.152 117.197 392.601 121.568C395.046 125.932 396.614 131.022 396.84 135.989L398.838 135.898Z" fill="white"/>
</svg>
