<svg xmlns="http://www.w3.org/2000/svg" viewBox="0 0 531.78 213.83"><defs><style>.cls-1{fill:#fff;}.cls-2{fill:none;stroke:#fff;stroke-miterlimit:10;}</style></defs><title>Asset 2</title><g id="Layer_2" data-name="Layer 2"><g id="Layer_1-2" data-name="Layer 1"><path class="cls-1" d="M0,103.32H64.51V84.6H20.74V61.7H58.32V43.56H20.74V21.24H64.51V2.52H0Z"/><path class="cls-1" d="M150,2.52h-23L112.09,36.93l-15-34.41H74.22v100.8H93.8V39L105,65h14.11l11.24-26.35v64.66h19.44Z"/><path class="cls-1" d="M223.75,20.37V2.52H159V20.37h22V85.46H159v17.86h64.8V85.46h-22V20.37Z"/><path class="cls-1" d="M233.35,103.32h62.79V84.16h-42V2.52H233.35Z"/><path class="cls-1" d="M334.25,65,364.34,2.52H341.45L323.74,40.1,306.17,2.52H283.42L313.51,65v38.31h20.74Z"/><path class="cls-2" d="M374.73,103.32h20.45V49.46l27.64,53.86h20.74V2.52H423.11V57.67L395.46,2.52H374.73Z"/><path class="cls-2" d="M528,103.32V47H491.7l.15,19.3H508c0,7.92-3.88,19.58-16.12,19.58-13.11,0-17.86-13.82-17.86-33,0-18.29,5.76-33,17.71-33,8.35,0,12.82,6.62,14.55,15l20.16-5.48c-4.18-17-16.56-28.94-35-28.94-26.49,0-38.59,22.61-38.59,52.42,0,31.1,13.83,52.41,38.59,52.41,11.09,0,18.15-3.89,20.31-6.77l2,4.76Z"/><path class="cls-2" d="M.54,175.32c0,29.23,17.14,38,35.57,38,19,0,35.14-8.64,35.14-37.87V110.52H50.51v63.79C50.51,188,46.34,194,36.11,194s-14.83-5.48-14.83-19.73V110.52H.54Z"/><path class="cls-2" d="M129.46,173l30.09-62.49H136.66L118.94,148.1l-17.56-37.58H78.62L108.72,173v38.31h20.74Z"/><path class="cls-2" d="M167.53,211.32H232V192.6H188.26V169.7h37.59V151.56H188.26V129.24H232V110.52H167.53Z"/><path class="cls-2" d="M240.2,211.32h20.45V157.46l27.65,53.86H309V110.52H288.58v55.15l-27.64-55.15H240.2Z"/><path class="cls-2" d="M329.78,200.23a12.1,12.1,0,1,0,12.1-12.1A12.17,12.17,0,0,0,329.78,200.23Z"/><path class="cls-2" d="M429.74,146.23l19-6.48c-5.33-21.46-20.16-31.39-38.59-31.39-25.49,0-42.34,21.74-42.34,52.41,0,32.4,17.57,52.42,42.63,52.42,19.87,0,32.11-10.66,37.87-29.38l-18.72-6.48c-2.16,8.35-7.34,16.71-18.72,16.71-13.68,0-23.47-13.25-23.47-33.12,0-18.87,9.07-33.27,22.89-33.27C422.26,127.65,427.44,135.86,429.74,146.23Z"/><path class="cls-2" d="M455.53,160.77c0,28.51,11.09,52.42,37.88,52.42,26.64,0,37.87-23.91,37.87-52.42s-11.09-51.41-37.87-51.41S455.53,132.12,455.53,160.77Zm55.88,0c0,18.72-4.76,33.12-18,33.12-13.4,0-18-14.4-18-33.12s4.6-33.12,18-33.12S511.41,142.05,511.41,160.77Z"/></g></g></svg>