<svg width="532" height="214" viewBox="0 0 532 214" fill="none" xmlns="http://www.w3.org/2000/svg">
<path d="M0.375977 103H64.888V84.28H21.112V61.384H58.696V43.24H21.112V20.92H64.888V2.19996H0.375977V103Z" fill="white"/>
<path d="M150.336 2.19996H127.296L112.464 36.616L97.4877 2.19996H74.5917V103H94.1757V38.632L105.408 64.696H119.52L130.752 38.344V103H150.192L150.336 2.19996Z" fill="white"/>
<path d="M224.127 20.056V2.19996H159.327V20.056H181.359V85.144H159.327V103H224.127V85.144H202.095V20.056H224.127Z" fill="white"/>
<path d="M233.727 103H296.511V83.848H254.463V2.19996H233.727V103Z" fill="white"/>
<path d="M334.623 64.696L364.719 2.19996H341.823L324.111 39.784L306.543 2.19996H283.791L313.887 64.696V103H334.623V64.696Z" fill="white"/>
<path d="M375.103 103H395.551V49.144L423.199 103H443.935V2.19996H423.487V57.352L395.839 2.19996H375.103V103Z" fill="white"/>
<path d="M528.367 103V46.696H492.078L492.222 65.992H508.35C508.35 73.912 504.462 85.576 492.222 85.576C479.118 85.576 474.366 71.752 474.366 52.6C474.366 34.312 480.126 19.624 492.078 19.624C500.43 19.624 504.894 26.248 506.622 34.6L526.782 29.128C522.606 12.136 510.222 0.18396 491.79 0.18396C465.294 0.18396 453.198 22.792 453.198 52.6C453.198 83.704 467.022 105.016 491.79 105.016C502.878 105.016 509.934 101.128 512.094 98.248L514.11 103H528.367Z" fill="white"/>
<path d="M0.919977 175C0.919977 204.232 18.056 213.016 36.488 213.016C55.496 213.016 71.624 204.376 71.624 175.144V110.2H50.888V173.992C50.888 187.672 46.712 193.72 36.488 193.72C26.264 193.72 21.656 188.248 21.656 173.992V110.2H0.919977V175Z" fill="white"/>
<path d="M129.832 172.696L159.928 110.2H137.032L119.32 147.784L101.752 110.2H78.9997L109.096 172.696V211H129.832V172.696Z" fill="white"/>
<path d="M167.903 211H232.415V192.28H188.639V169.384H226.223V151.24H188.639V128.92H232.415V110.2H167.903V211Z" fill="white"/>
<path d="M240.575 211H261.023V157.144L288.671 211H309.407V110.2H288.959V165.352L261.311 110.2H240.575V211Z" fill="white"/>
<path d="M330.159 199.912C330.159 206.536 335.631 212.008 342.255 212.008C348.879 212.008 354.351 206.536 354.351 199.912C354.351 193.288 348.879 187.816 342.255 187.816C335.631 187.816 330.159 193.288 330.159 199.912Z" fill="white"/>
<path d="M430.119 145.912L449.127 139.432C443.799 117.976 428.967 108.04 410.535 108.04C385.047 108.04 368.199 129.784 368.199 160.456C368.199 192.856 385.767 212.872 410.823 212.872C430.695 212.872 442.935 202.216 448.695 183.496L429.975 177.016C427.815 185.368 422.631 193.72 411.255 193.72C397.575 193.72 387.783 180.472 387.783 160.6C387.783 141.736 396.855 127.336 410.679 127.336C422.631 127.336 427.815 135.544 430.119 145.912Z" fill="white"/>
<path d="M455.91 160.456C455.91 188.968 466.998 212.872 493.782 212.872C520.422 212.872 531.654 188.968 531.654 160.456C531.654 131.8 520.566 108.04 493.782 108.04C466.998 108.04 455.91 131.8 455.91 160.456ZM511.782 160.456C511.782 179.176 507.03 193.576 493.782 193.576C480.39 193.576 475.782 179.176 475.782 160.456C475.782 141.736 480.39 127.336 493.782 127.336C507.174 127.336 511.782 141.736 511.782 160.456Z" fill="white"/>
</svg>
