<?xml version="1.0" standalone="no"?>
<!DOCTYPE svg PUBLIC "-//W3C//DTD SVG 20010904//EN"
 "http://www.w3.org/TR/2001/REC-SVG-20010904/DTD/svg10.dtd">
<svg version="1.0" xmlns="http://www.w3.org/2000/svg"
 width="500.000000pt" height="500.000000pt" viewBox="0 0 500.000000 500.000000"
 preserveAspectRatio="xMidYMid meet">
<metadata>
Created by potrace 1.11, written by Peter Selinger 2001-2013
</metadata>
<g transform="translate(0.000000,500.000000) scale(0.100000,-0.100000)"
fill="#000000" stroke="none">
<path d="M1000 3950 l0 -321 83 -38 c45 -21 132 -62 192 -91 61 -29 144 -68
185 -87 41 -19 118 -56 170 -80 52 -25 131 -62 175 -83 320 -151 434 -204 530
-250 61 -29 184 -87 275 -130 91 -42 208 -98 260 -122 52 -25 146 -70 209 -99
63 -30 157 -74 208 -99 l94 -45 -53 -26 c-29 -15 -80 -39 -113 -54 -62 -29
-170 -79 -365 -172 -63 -30 -135 -64 -160 -75 -45 -19 -64 -29 -97 -48 -10 -5
-52 -25 -93 -44 -41 -18 -120 -55 -175 -81 -228 -107 -273 -129 -340 -160 -38
-18 -113 -53 -165 -78 -200 -95 -297 -141 -365 -172 -38 -18 -119 -56 -180
-85 -60 -29 -147 -70 -192 -91 l-83 -38 0 -321 c0 -177 3 -319 8 -317 4 2 59
29 122 60 348 167 423 203 510 244 52 25 160 77 240 115 80 39 186 90 235 113
50 23 169 81 265 128 185 89 369 178 535 257 55 26 177 85 270 130 94 45 206
99 250 120 44 21 154 73 245 117 91 44 200 97 243 117 l77 38 -2 324 -3 324
-270 131 c-148 72 -297 143 -330 159 -82 38 -281 133 -450 215 -77 37 -198 96
-270 130 -199 96 -624 300 -780 375 -77 37 -192 92 -255 123 -63 30 -178 85
-255 122 -77 37 -183 88 -235 112 -52 25 -107 52 -122 59 l-28 15 0 -321z"/>
</g>
</svg>
