<?xml version="1.0" standalone="no"?>
<!DOCTYPE svg PUBLIC "-//W3C//DTD SVG 20010904//EN"
 "http://www.w3.org/TR/2001/REC-SVG-20010904/DTD/svg10.dtd">
<svg version="1.0" xmlns="http://www.w3.org/2000/svg"
 width="500.000000pt" height="500.000000pt" viewBox="0 0 500.000000 500.000000"
 preserveAspectRatio="xMidYMid meet">
<metadata>
Created by potrace 1.11, written by Peter Selinger 2001-2013
</metadata>
<g transform="translate(0.000000,500.000000) scale(0.100000,-0.100000)"
fill="#000000" stroke="none">
<path d="M2646 3083 c-187 -43 -337 -198 -391 -404 -18 -68 -24 -231 -11 -309
34 -207 172 -377 361 -444 67 -24 239 -29 324 -10 151 32 286 136 369 283 16
27 19 24 -76 73 -54 28 -64 31 -72 18 -26 -46 -96 -122 -136 -149 -93 -61
-238 -81 -341 -47 -127 42 -216 160 -238 318 l-7 48 453 2 454 3 -2 81 c-7
294 -171 501 -433 545 -73 12 -181 9 -254 -8z m262 -177 c96 -34 177 -114 202
-201 6 -22 13 -47 16 -55 3 -14 -35 -16 -336 -16 -385 -1 -356 -9 -316 87 27
66 85 133 141 162 85 44 206 53 293 23z"/>
<path d="M3950 3081 c-27 -10 -68 -39 -105 -73 -32 -32 -60 -58 -61 -58 -2 0
-1 27 0 61 1 33 -1 62 -6 65 -8 5 -66 7 -155 5 l-33 -1 0 -579 0 -579 80 -4
c128 -5 115 -40 116 317 0 337 6 430 29 498 48 143 92 187 185 187 52 0 89
-32 103 -91 8 -31 12 -182 11 -477 0 -351 2 -432 13 -433 7 0 33 0 58 0 25 0
63 0 84 0 l40 1 0 328 c1 344 4 393 28 482 42 154 143 227 243 175 52 -27 54
-49 56 -533 0 -243 4 -445 7 -448 6 -6 25 -7 147 -5 l41 1 -1 478 c-1 432 -3
482 -19 530 -23 67 -66 121 -117 147 -56 28 -173 27 -234 -1 -49 -23 -116 -82
-145 -127 l-18 -29 -26 53 c-55 112 -187 157 -321 110z"/>
<path d="M180 2971 l0 -98 48 -21 c26 -11 115 -53 197 -92 83 -40 177 -84 210
-100 33 -15 112 -53 175 -83 l115 -55 -80 -37 c-44 -20 -120 -56 -170 -80 -49
-24 -178 -84 -285 -135 -107 -50 -199 -95 -203 -99 -4 -4 -6 -51 -5 -104 l3
-95 125 60 c69 33 170 82 225 108 55 26 181 87 280 135 99 48 207 100 241 116
l61 29 -1 102 -1 103 -45 22 c-25 13 -142 70 -260 127 -118 57 -282 136 -365
176 -161 78 -253 120 -260 120 -3 0 -5 -44 -5 -99z"/>
</g>
</svg>
