<?xml version="1.0" encoding="UTF-8"?>
<svg width="339px" height="338px" viewBox="0 0 339 338" version="1.1" xmlns="http://www.w3.org/2000/svg" xmlns:xlink="http://www.w3.org/1999/xlink">
    <!-- Generator: Sketch 51.3 (57544) - http://www.bohemiancoding.com/sketch -->
    <title>Group 4</title>
    <desc>Created with Sketch.</desc>
    <defs></defs>
    <g id="Welcome" stroke="none" stroke-width="1" fill="none" fill-rule="evenodd">
        <g id="Desktop-HD" transform="translate(-1646.000000, -3060.000000)">
            <g id="Group-4" transform="translate(1646.401170, 3059.348641)">
                <circle id="Oval" fill="#FFFFFF" cx="169.143921" cy="169.672195" r="168.748501"></circle>
                <g id="logo-color" transform="translate(81.194500, 70.120801)" fill-rule="nonzero">
                    <rect id="Rectangle-path" fill="#FFD058" x="0.483064445" y="13.9312442" width="81.6095825" height="81.9703321" rx="7.13"></rect>
                    <path d="M43.2920203,66.6006898 L0.643397613,27.8201048 C0.643397613,20.2269798 6.79884169,14.0715357 14.3919668,14.0715357 L68.3039945,14.0715357 C75.8971196,14.0715357 82.0525636,20.2269798 82.0525636,27.8201048 L43.2920203,66.6006898 Z" id="Shape" fill="#FBB040"></path>
                    <path d="M137.868548,96.142076 C114.701768,96.142076 95.9213827,77.3616905 95.9213827,54.194911 C95.9213827,31.0281314 114.701768,12.2477459 137.868548,12.2477459 C161.035327,12.2477459 179.815713,31.0281314 179.815713,54.194911 C179.738724,77.3297258 161.003363,96.0650876 137.868548,96.142076 Z M137.868548,26.1566482 C122.372374,26.1566482 109.810243,38.718779 109.810243,54.2149526 C109.810243,69.7111262 122.372374,82.273257 137.868548,82.273257 C153.364721,82.273257 165.926852,69.7111262 165.926852,54.2149526 C165.926852,38.718779 153.364721,26.1566482 137.868548,26.1566482 Z" id="Shape" fill="#DF3341"></path>
                    <path d="M115.482029,89.5884578 C103.39528,82.2477584 95.965482,69.1773787 95.8412161,55.0366601 C95.727235,47.5291061 97.6528658,40.131359 101.412794,33.6321822 L113.437781,40.54655 C111.015967,44.906388 109.792016,49.8298518 109.89041,54.816202 C109.988379,59.9953334 111.536763,65.0432032 114.359697,69.3864786 C116.471788,72.7852215 119.338362,75.6517952 122.737105,77.7638866 L115.482029,89.5884578 Z" id="Shape" fill="#BE1E2D"></path>
                    <path d="M48.7233063,37.6405114 L34.4336128,37.6405114 C26.4465918,37.6294719 19.9745838,31.1574639 19.9635443,23.170443 L19.9635443,15.1537846 C19.9745838,7.1667636 26.4465918,0.69475559 34.4336128,0.683716154 L48.7032647,0.683716154 C56.6902857,0.69475559 63.1622937,7.1667636 63.1733331,15.1537846 L63.1733331,23.170443 C63.1623273,31.149659 56.7024994,37.6184464 48.7233063,37.6405114 Z M34.4336128,6.73629324 C29.7626233,6.73629324 25.9760381,10.5228784 25.9760381,15.1938679 L25.9760381,23.2105262 C25.9981016,27.8658546 29.7782321,31.6280698 34.4336128,31.6280176 L48.7032647,31.6280176 C53.3742542,31.6280176 57.1608393,27.8414324 57.1608393,23.170443 L57.1608393,15.1537846 C57.1608393,10.4827951 53.3742542,6.69620995 48.7032647,6.69620995 L34.4336128,6.73629324 Z" id="Shape" fill="#FBB040"></path>
                    <rect id="Rectangle-path" fill="#80B058" x="0.402897861" y="113.538225" width="81.6897491" height="14.5903183" rx="1.46"></rect>
                    <path d="M0.402897861,123.799547 L82.0926469,123.799547 L82.0926469,125.302671 C82.0926469,126.874426 80.8184879,128.148585 79.2467332,128.148585 L3.24881159,128.148585 C1.67705684,128.148585 0.402897861,126.874426 0.402897861,125.302671 L0.402897861,123.799547 Z" id="Shape" fill="#98BC77"></path>
                    <rect id="Rectangle-path" fill="#80B058" x="0.402897861" y="144.743068" width="81.6897491" height="14.5903183" rx="1.46"></rect>
                    <path d="M0.402261837,155.044474 L82.0926469,155.044474 L82.0926469,156.547597 C82.0926469,158.119352 80.8184879,159.393511 79.2467332,159.393511 L3.24881159,159.393511 C2.48349459,159.393682 1.75036227,159.085606 1.21488741,158.538818 C0.67941254,157.99203 0.386729172,157.252618 0.402897861,156.487472 L0.402261837,155.044474 Z" id="Shape" fill="#98BC77"></path>
                    <rect id="Rectangle-path" fill="#80B058" x="0.402897861" y="175.767536" width="81.6897491" height="14.5903183" rx="1.46"></rect>
                    <path d="M0.402897861,186.008817 L82.0926469,186.008817 L82.0926469,187.51194 C82.0926469,189.083695 80.8184879,190.357854 79.2467332,190.357854 L3.24881159,190.357854 C1.67705684,190.357854 0.402897861,189.083695 0.402897861,187.51194 L0.402897861,186.008817 Z" id="Shape" fill="#98BC77"></path>
                    <rect id="Rectangle-path" fill="#177CA3" x="97.0236732" y="111.333644" width="81.5895408" height="81.2287912" rx="2.99"></rect>
                    <polygon id="Shape" fill="#65A2BA" points="166.989059 192.562435 160.034608 192.562435 153.060115 192.562435 153.060115 134.54187 166.989059 134.54187"></polygon>
                    <polygon id="Shape" fill="#65A2BA" points="144.782916 192.562435 137.828464 192.562435 130.874013 192.562435 130.874013 146.546816 144.782916 146.546816"></polygon>
                    <polygon id="Shape" fill="#65A2BA" points="122.576772 192.562435 115.622321 192.562435 108.66787 192.562435 108.66787 158.912511 122.576772 158.912511"></polygon>
                </g>
            </g>
        </g>
    </g>
</svg>