<?xml version="1.0" standalone="no"?>
<!DOCTYPE svg PUBLIC "-//W3C//DTD SVG 20010904//EN"
 "http://www.w3.org/TR/2001/REC-SVG-20010904/DTD/svg10.dtd">
<svg version="1.0" xmlns="http://www.w3.org/2000/svg"
 width="1173.000000pt" height="1173.000000pt" viewBox="0 0 1173.000000 1173.000000"
 preserveAspectRatio="xMidYMid meet">
<metadata>
Created by potrace 1.11, written by Peter Selinger 2001-2013
</metadata>
<g transform="translate(0.000000,1173.000000) scale(0.100000,-0.100000)"
fill="#000000" stroke="none">
<path d="M8030 11551 c-70 -23 -127 -66 -274 -210 -209 -204 -1053 -1049
-1322 -1322 -247 -252 -268 -284 -268 -410 1 -113 33 -170 216 -382 l27 -32
-22 -17 c-20 -16 -499 -258 -511 -258 -2 0 -43 -18 -91 -41 -105 -49 -471
-206 -570 -244 -91 -35 -314 -124 -340 -134 -11 -5 -76 -30 -145 -56 -69 -26
-134 -51 -145 -55 -11 -5 -121 -48 -245 -95 -124 -47 -234 -90 -245 -95 -11
-5 -60 -26 -110 -46 -49 -20 -106 -43 -125 -51 -19 -8 -45 -19 -57 -24 -37
-15 -65 -26 -126 -53 -32 -14 -60 -26 -62 -26 -2 0 -48 -20 -101 -45 -53 -25
-97 -45 -99 -45 -5 0 -250 -117 -393 -189 -217 -107 -317 -182 -409 -303 -58
-76 -73 -108 -163 -333 -55 -140 -60 -152 -83 -205 -8 -19 -36 -87 -61 -150
-26 -63 -53 -129 -61 -147 -8 -17 -15 -35 -15 -40 0 -6 -6 -23 -14 -39 -8 -16
-42 -99 -76 -184 -33 -85 -65 -164 -70 -175 -13 -28 -30 -71 -285 -705 -125
-311 -304 -754 -397 -985 -93 -231 -171 -424 -172 -430 -2 -5 -8 -21 -13 -35
-6 -14 -75 -185 -152 -380 -78 -195 -146 -364 -151 -375 -5 -11 -104 -258
-220 -550 -116 -291 -215 -539 -220 -550 -5 -11 -41 -101 -80 -200 -39 -99
-77 -193 -84 -210 -16 -38 -40 -98 -42 -105 0 -3 -5 -16 -11 -30 -29 -68 -73
-181 -73 -188 0 -10 20 -30 650 -652 464 -457 578 -565 597 -563 20 2 427 159
538 209 17 7 73 29 125 49 52 20 109 42 125 50 17 8 527 213 1135 455 608 243
1114 445 1125 450 11 5 157 64 325 131 168 66 458 181 645 256 187 74 354 141
370 149 17 7 163 66 325 129 162 64 314 125 337 136 24 10 45 19 48 19 2 0
118 46 257 101 139 56 280 111 313 124 221 82 334 147 426 242 80 84 119 144
198 305 76 157 211 447 211 454 0 2 14 34 31 71 17 38 75 174 129 303 114 277
113 274 114 280 2 6 134 344 151 385 18 42 59 149 61 155 0 3 4 14 9 25 4 11
57 144 117 295 60 151 115 289 123 307 8 17 15 34 15 37 0 3 11 29 24 58 13
29 59 132 101 228 131 295 271 587 352 731 l48 87 30 -25 c84 -69 186 -143
235 -170 145 -80 235 -67 394 59 37 29 437 425 888 881 l822 828 -1 109 -1
110 -41 69 c-34 58 -294 323 -1618 1648 -1760 1762 -1623 1635 -1773 1640 -41
1 -86 -1 -100 -6z"/>
</g>
</svg>
