<?xml version="1.0" standalone="no"?>
<!DOCTYPE svg PUBLIC "-//W3C//DTD SVG 20010904//EN"
 "http://www.w3.org/TR/2001/REC-SVG-20010904/DTD/svg10.dtd">
<svg version="1.0" xmlns="http://www.w3.org/2000/svg"
 width="700.000000pt" height="700.000000pt" viewBox="0 0 700.000000 700.000000"
 preserveAspectRatio="xMidYMid meet">
<metadata>
Created by potrace 1.11, written by Peter Selinger 2001-2013
</metadata>
<g transform="translate(0.000000,700.000000) scale(0.100000,-0.100000)"
fill="#000000" stroke="none">
<path d="M3407 6244 c-1 -1 -47 -4 -102 -8 -97 -6 -119 -8 -215 -22 -25 -3
-54 -7 -65 -9 -296 -40 -728 -210 -1014 -400 -293 -193 -472 -360 -704 -655
-140 -179 -327 -534 -412 -784 -146 -432 -177 -915 -90 -1396 61 -332 212
-695 417 -1000 270 -401 685 -758 1108 -953 30 -13 75 -34 100 -45 110 -51
340 -125 475 -153 33 -7 65 -14 70 -15 173 -38 535 -58 745 -40 135 12 212 23
335 47 158 32 432 116 459 141 6 4 16 8 24 8 42 0 380 183 521 281 34 24 72
51 85 59 50 34 205 170 290 254 323 321 561 715 691 1142 20 65 39 130 41 144
3 14 14 66 24 115 75 354 71 772 -11 1150 -14 65 -67 254 -78 280 -5 11 -17
43 -26 70 -29 83 -57 144 -123 275 -138 274 -269 455 -502 693 -169 172 -325
297 -554 442 -71 45 -357 185 -378 185 -8 0 -18 4 -23 9 -10 9 -189 68 -285
95 -145 39 -348 72 -505 82 -83 6 -294 11 -298 8z m-859 -1829 c88 -16 186
-99 230 -193 37 -80 42 -194 12 -275 -77 -205 -298 -290 -502 -193 -53 26
-128 104 -155 165 -45 101 -40 234 12 326 81 141 229 203 403 170z m2087 -1
c101 -21 217 -127 245 -224 76 -260 -89 -484 -350 -474 -139 5 -249 78 -309
204 -21 45 -26 71 -28 145 -1 80 2 97 27 152 47 102 147 182 254 202 42 8 108
6 161 -5z m-2061 -1538 c119 -182 296 -333 480 -408 290 -119 658 -108 931 27
135 67 243 154 346 277 50 60 143 195 151 220 3 7 13 5 31 -7 15 -9 27 -14 27
-10 0 3 12 -2 28 -13 15 -10 64 -39 109 -63 46 -24 83 -49 83 -55 0 -6 -9 -23
-20 -37 -11 -14 -20 -28 -20 -32 0 -12 -79 -134 -138 -215 -77 -104 -242 -265
-336 -328 -137 -92 -331 -175 -456 -197 -126 -21 -182 -27 -290 -27 -69 0
-143 2 -165 6 -22 3 -60 8 -85 12 -175 23 -420 132 -570 252 -49 40 -167 156
-217 213 -70 82 -244 354 -231 363 8 6 184 104 238 133 22 11 26 11 35 -4 6
-9 37 -57 69 -107z"/>
</g>
</svg>
