<?xml version="1.0" standalone="no"?>
<!DOCTYPE svg PUBLIC "-//W3C//DTD SVG 20010904//EN"
 "http://www.w3.org/TR/2001/REC-SVG-20010904/DTD/svg10.dtd">
<svg version="1.0" xmlns="http://www.w3.org/2000/svg"
 width="504.000000pt" height="504.000000pt" viewBox="0 0 504.000000 504.000000"
 preserveAspectRatio="xMidYMid meet">
<metadata>
Created by potrace 1.11, written by Peter Selinger 2001-2013
</metadata>
<g transform="translate(0.000000,504.000000) scale(0.100000,-0.100000)"
fill="#000000" stroke="none">
<path d="M2380 4263 c-376 -40 -677 -157 -950 -372 -58 -45 -235 -222 -282
-281 -283 -359 -415 -823 -362 -1279 68 -591 431 -1100 968 -1361 107 -52 265
-110 336 -124 14 -3 36 -7 50 -10 437 -96 904 -17 1280 217 627 390 943 1134
784 1847 -37 162 -66 245 -145 405 -188 380 -504 675 -890 830 -52 20 -103 41
-114 45 -24 10 -168 47 -210 55 -16 2 -39 7 -50 9 -82 16 -333 27 -415 19z
m309 -308 c20 -3 51 -8 69 -10 18 -2 76 -16 129 -30 465 -127 837 -482 986
-940 50 -152 70 -278 70 -440 2 -361 -127 -697 -368 -963 -96 -105 -156 -157
-275 -236 -304 -202 -663 -279 -1025 -220 -384 62 -733 285 -950 605 -229 338
-305 754 -210 1146 143 591 655 1039 1245 1090 36 3 66 7 68 8 6 5 223 -3 261
-10z"/>
</g>
</svg>
