<?xml version="1.0" standalone="no"?>
<!DOCTYPE svg PUBLIC "-//W3C//DTD SVG 20010904//EN"
 "http://www.w3.org/TR/2001/REC-SVG-20010904/DTD/svg10.dtd">
<svg version="1.0" xmlns="http://www.w3.org/2000/svg"
 width="274.000000pt" height="274.000000pt" viewBox="0 0 274.000000 274.000000"
 preserveAspectRatio="xMidYMid meet">
<metadata>
Created by potrace 1.11, written by Peter Selinger 2001-2013
</metadata>
<g transform="translate(0.000000,274.000000) scale(0.100000,-0.100000)"
fill="#000000" stroke="none">
<path d="M140 2479 c-38 -8 -78 -44 -95 -84 -9 -23 -12 -229 -11 -885 1 -819
2 -856 20 -886 25 -42 70 -67 125 -70 25 -1 49 -3 52 -3 3 -1 5 -34 4 -73 -1
-121 22 -175 90 -203 23 -10 279 -12 1150 -11 1237 1 1156 -3 1202 65 l23 34
0 758 c0 681 -2 762 -16 793 -22 45 -78 76 -140 76 l-49 0 0 99 c0 86 -3 104
-21 128 -50 67 -5 63 -805 64 l-724 0 -85 101 -86 102 -301 0 c-166 1 -316 -2
-333 -5z"/>
</g>
</svg>
