<?xml version="1.0" standalone="no"?>
<!DOCTYPE svg PUBLIC "-//W3C//DTD SVG 20010904//EN"
 "http://www.w3.org/TR/2001/REC-SVG-20010904/DTD/svg10.dtd">
<svg version="1.0" xmlns="http://www.w3.org/2000/svg"
 width="274.000000pt" height="274.000000pt" viewBox="0 0 274.000000 274.000000"
 preserveAspectRatio="xMidYMid meet">
<metadata>
Created by potrace 1.11, written by Peter Selinger 2001-2013
</metadata>
<g transform="translate(0.000000,274.000000) scale(0.100000,-0.100000)"
fill="#000000" stroke="none">
<path d="M1658 2522 l-221 -221 6 -37 c4 -20 18 -49 32 -64 l26 -27 -23 -15
c-23 -14 -83 -43 -168 -80 -25 -11 -124 -51 -220 -88 -96 -38 -192 -75 -212
-84 -21 -9 -41 -17 -45 -17 -5 -1 -52 -23 -105 -50 -106 -53 -143 -84 -165
-138 -29 -69 -36 -86 -39 -96 -2 -5 -120 -301 -264 -657 l-260 -647 145 -143
c80 -79 150 -144 155 -146 5 -2 24 3 42 12 18 8 91 38 163 66 72 28 139 55
150 60 11 5 191 77 400 160 209 83 389 155 400 160 11 5 78 32 150 60 81 32
139 62 155 79 36 37 94 161 206 444 88 220 190 447 201 447 2 0 19 -12 38 -26
70 -53 73 -51 312 188 187 187 215 219 217 248 2 32 -18 55 -389 426 -343 344
-395 393 -429 399 l-38 8 -220 -221z"/>
</g>
</svg>
